#N canvas 17 23 1205 674 10;
#X declare -path abstractions;
#X obj 572 633 coll \$0-raw-dataset;
#C restore;
#X obj 572 595 loadbang;
#N canvas 383 435 450 300 extractfromstream 0;
#X msg 178 102 32;
#X obj 178 140 +;
#X obj 252 123 * 32;
#X obj 178 83 t b f;
#X floatatom 178 64 5 0 0 0 - - -, f 5;
#X obj 178 178 list split 1;
#X obj 178 197 pack s f;
#X msg 178 217 \$2 \$1;
#X text 212 64 pattern to extract;
#X obj 142 41 inlet;
#X obj 178 238 outlet;
#N canvas 866 468 450 300 iterate 0;
#X obj 72 26 inlet;
#X obj 72 53 route bang;
#X obj 129 93 until;
#X obj 129 112 f;
#X obj 161 127 + 1;
#X obj 129 162 outlet;
#X msg 181 89 0;
#X obj 129 74 t f b;
#X connect 0 0 1 0;
#X connect 1 1 7 0;
#X connect 2 0 3 0;
#X connect 3 0 4 0;
#X connect 3 0 5 0;
#X connect 4 0 3 1;
#X connect 6 0 3 1;
#X connect 7 0 2 0;
#X connect 7 1 6 0;
#X restore 178 120 pd iterate;
#X obj 178 159 coll \$0-raw-dataset;
#C restore;
#X connect 0 0 11 0;
#X connect 1 0 12 0;
#X connect 2 0 1 1;
#X connect 3 0 0 0;
#X connect 3 1 2 0;
#X connect 4 0 3 0;
#X connect 5 0 6 0;
#X connect 5 1 6 1;
#X connect 6 0 7 0;
#X connect 7 0 10 0;
#X connect 9 0 3 0;
#X connect 11 0 1 0;
#X connect 12 0 5 0;
#X restore 72 234 pd extractfromstream;
#X obj 33 628 declare -path abstractions;
#X text 45 369 k;
#X text 45 358 s;
#X text 42 348 ch;
#X text 42 339 oh;
#X text 42 327 cp;
#X text 41 317 rs;
#N canvas 498 105 643 300 pace 0;
#X obj 111 -127 f;
#X obj 155 -126 + 1;
#X obj 111 -180 t f f;
#X obj 171 -163 sel 1;
#X msg 171 -144 0;
#X obj 111 -160 metro 100;
#X obj 234 -231 bpm;
#X obj 33 -42 s numberz16;
#X obj 33 -60 % 16;
#X obj 111 -263 r start-drumz;
#X obj 234 -251 r bpm;
#X obj 111 -103 t f f;
#X obj 316 -140 t b f;
#X obj 234 -195 + 0;
#X obj 397 -178 t f f;
#X obj 423 -144 * -1;
#X obj 316 -227 % 8;
#X obj 316 -200 moses 4;
#X obj 361 -180 - 4;
#X obj 316 -168 *;
#X obj 361 -161 *;
#X obj 111 -77 % 32;
#X obj 111 -25 outlet;
#X obj 397 -201 inlet;
#X obj 154 -25 s numberz32;
#X obj 111 -58 t f f;
#X obj 230 -103 s sixteenth-time;
#X connect 0 0 1 0;
#X connect 0 0 11 0;
#X connect 1 0 0 1;
#X connect 2 0 5 0;
#X connect 2 1 3 0;
#X connect 3 0 4 0;
#X connect 4 0 0 1;
#X connect 5 0 0 0;
#X connect 6 0 13 0;
#X connect 8 0 7 0;
#X connect 9 0 2 0;
#X connect 10 0 6 0;
#X connect 11 0 8 0;
#X connect 11 0 21 0;
#X connect 11 1 16 0;
#X connect 12 0 13 0;
#X connect 12 1 13 1;
#X connect 13 0 5 1;
#X connect 13 0 26 0;
#X connect 14 0 20 1;
#X connect 14 1 15 0;
#X connect 15 0 19 1;
#X connect 16 0 17 0;
#X connect 17 0 19 0;
#X connect 17 1 18 0;
#X connect 18 0 20 0;
#X connect 19 0 12 0;
#X connect 20 0 12 0;
#X connect 21 0 25 0;
#X connect 23 0 14 0;
#X connect 25 0 22 0;
#X connect 25 1 24 0;
#X restore 98 609 pd pace;
#N canvas 51 216 1043 549 patt2sound 0;
#X obj 89 167 tabplay~ k;
#X obj 89 134 sel 1;
#X obj 169 150 sel 1;
#X obj 169 170 tabplay~ s;
#X obj 253 150 sel 1;
#X obj 253 196 tabplay~ c;
#X obj 343 149 sel 1;
#X obj 343 192 tabplay~ o;
#X obj 169 190 *~ 0.8;
#X obj 343 212 *~ 0.5;
#X obj 343 169 t b b;
#X obj 253 170 t b b;
#X msg 416 190 0;
#X obj 343 330 throw~ drums;
#X obj 236 397 catch~ drums;
#X obj 245 520 dac~;
#X obj 344 306 *~;
#X obj 253 328 throw~ drums;
#X obj 254 306 *~;
#X obj 167 336 throw~ drums;
#X obj 168 306 *~;
#X obj 88 337 throw~ drums;
#X obj 89 306 *~;
#X obj 729 62 t b b b b;
#X obj 699 176 random 100;
#X obj 699 197 / 100;
#X obj 699 219 - 1;
#X obj 698 240 abs;
#X obj 768 176 random 100;
#X obj 768 197 / 100;
#X obj 768 219 - 1;
#X obj 767 240 abs;
#X obj 841 174 random 100;
#X obj 841 195 / 100;
#X obj 841 217 - 1;
#X obj 840 238 abs;
#X obj 910 174 random 100;
#X obj 910 195 / 100;
#X obj 910 217 - 1;
#X obj 909 238 abs;
#X obj 900 21 vsl 15 128 0 100 0 1 empty empty empty 0 -9 0 10 -262144
-1 -1 3200 1;
#X obj 228 489 freeverb~;
#X msg 401 450 dry 1;
#X obj 412 412 loadbang;
#X obj 236 452 *~ 0.7;
#X msg 501 450 damping 1;
#X obj 698 267 pack f 2;
#X obj 698 288 line~;
#X obj 767 267 pack f 2;
#X obj 767 289 line~;
#X obj 838 262 pack f 2;
#X obj 838 289 line~;
#X obj 907 262 pack f 2;
#X obj 907 289 line~;
#X text 675 12 randomize hit strength->;
#X obj 241 46 + 1;
#X obj 293 15 inlet;
#X obj 9 171 s playk;
#X obj 10 192 s plays;
#X obj 14 217 s playch;
#X obj 14 244 s playoh;
#X obj 479 147 sel 1;
#X obj 479 328 throw~ drums;
#X obj 418 62 t f f f f f f f f;
#X obj 479 190 tabplay~ cp;
#X obj 559 147 sel 1;
#X obj 559 167 t b b;
#X obj 559 328 throw~ drums;
#X obj 559 190 tabplay~ rs;
#X msg 445 449 wet 0.01;
#X msg 314 454 roomsize 0.8;
#X obj 479 211 *~ 0.55;
#X msg 479 168 0 15000;
#X obj 265 416 r \$0-volume;
#X obj 236 433 *~;
#X obj 23 283 s playcp;
#X obj 24 310 s playrs;
#X msg 446 189 0.4;
#X obj 559 210 *~ 1;
#X obj 253 216 *~ 0.5;
#X msg 35 126 bang;
#X obj 89 112 tabread D-kick;
#X obj 169 114 tabread D-snare;
#X obj 253 114 tabread D-chihat;
#X obj 343 114 tabread D-ohihat;
#X obj 479 112 tabread D-clap;
#X obj 559 112 tabread D-rimshot;
#X connect 0 0 22 0;
#X connect 1 0 0 0;
#X connect 1 0 57 0;
#X connect 2 0 3 0;
#X connect 2 0 58 0;
#X connect 3 0 8 0;
#X connect 4 0 11 0;
#X connect 4 0 59 0;
#X connect 5 0 79 0;
#X connect 6 0 10 0;
#X connect 6 0 60 0;
#X connect 7 0 9 0;
#X connect 8 0 20 0;
#X connect 9 0 16 0;
#X connect 10 0 7 0;
#X connect 10 1 77 0;
#X connect 11 0 5 0;
#X connect 11 1 12 0;
#X connect 12 0 9 1;
#X connect 14 0 74 0;
#X connect 16 0 13 0;
#X connect 18 0 17 0;
#X connect 20 0 19 0;
#X connect 22 0 21 0;
#X connect 23 0 24 0;
#X connect 23 1 28 0;
#X connect 23 2 32 0;
#X connect 23 3 36 0;
#X connect 24 0 25 0;
#X connect 25 0 26 0;
#X connect 26 0 27 0;
#X connect 27 0 46 0;
#X connect 28 0 29 0;
#X connect 29 0 30 0;
#X connect 30 0 31 0;
#X connect 31 0 48 0;
#X connect 32 0 33 0;
#X connect 33 0 34 0;
#X connect 34 0 35 0;
#X connect 35 0 50 0;
#X connect 36 0 37 0;
#X connect 37 0 38 0;
#X connect 38 0 39 0;
#X connect 39 0 52 0;
#X connect 40 0 24 1;
#X connect 40 0 28 1;
#X connect 40 0 36 1;
#X connect 41 0 15 0;
#X connect 41 1 15 1;
#X connect 42 0 41 0;
#X connect 43 0 70 0;
#X connect 43 0 42 0;
#X connect 43 0 69 0;
#X connect 43 0 45 0;
#X connect 44 0 41 0;
#X connect 44 0 41 1;
#X connect 45 0 41 0;
#X connect 46 0 47 0;
#X connect 47 0 22 1;
#X connect 48 0 49 0;
#X connect 49 0 20 1;
#X connect 50 0 51 0;
#X connect 51 0 18 1;
#X connect 52 0 53 0;
#X connect 53 0 16 1;
#X connect 55 0 63 0;
#X connect 56 0 23 0;
#X connect 56 0 55 0;
#X connect 61 0 72 0;
#X connect 61 0 75 0;
#X connect 63 0 81 0;
#X connect 63 1 82 0;
#X connect 63 2 83 0;
#X connect 63 3 84 0;
#X connect 63 4 85 0;
#X connect 63 5 86 0;
#X connect 64 0 71 0;
#X connect 65 0 66 0;
#X connect 65 0 76 0;
#X connect 66 0 68 0;
#X connect 68 0 78 0;
#X connect 69 0 41 0;
#X connect 70 0 41 0;
#X connect 71 0 62 0;
#X connect 72 0 64 0;
#X connect 73 0 74 1;
#X connect 74 0 44 0;
#X connect 77 0 9 1;
#X connect 78 0 67 0;
#X connect 79 0 18 0;
#X connect 80 0 0 0;
#X connect 81 0 1 0;
#X connect 82 0 2 0;
#X connect 83 0 4 0;
#X connect 84 0 6 0;
#X connect 85 0 61 0;
#X connect 86 0 65 0;
#X restore 261 628 pd patt2sound;
#X obj 261 609 r numberz32;
#X obj 101 592 hsl 70 15 0 5 0 0 empty empty groove 15 7 0 10 -262144
-1 -1 0 1;
#N canvas 5 90 841 420 samples 0;
#X obj 75 322 soundfiler;
#X msg 118 77 read -resize samples/kick.wav k;
#X obj 185 97 table k;
#X msg 139 122 read -resize samples/snare.wav s;
#X obj 206 142 table s;
#X obj 216 193 table o;
#X msg 149 173 read -resize samples/oh.wav o;
#X msg 174 218 read -resize samples/ch.wav c;
#X obj 241 238 table c;
#X obj 223 297 table cp;
#X msg 156 277 read -resize samples/cp.wav cp;
#X msg 165 328 read -resize samples/rs.wav rs;
#X obj 232 348 table rs;
#X obj 427 331 soundfiler;
#X msg 543 213 read -resize samples/e_bd.wav k;
#X msg 543 232 read -resize samples/e_sn.wav s;
#X msg 543 252 read -resize samples/e_oh.wav o;
#X msg 543 272 read -resize samples/e_ch.wav c;
#X msg 543 293 read -resize samples/e_cp.wav cp;
#X msg 543 314 read -resize samples/e_rs.wav rs;
#X msg 466 196 bang;
#X obj 117 56 bang;
#X msg 117 36 bang;
#X obj 372 27 inlet;
#X obj 391 63 sel 0 1;
#X obj 466 158 loadbang;
#X connect 1 0 0 0;
#X connect 3 0 0 0;
#X connect 6 0 0 0;
#X connect 7 0 0 0;
#X connect 10 0 0 0;
#X connect 11 0 0 0;
#X connect 14 0 13 0;
#X connect 15 0 13 0;
#X connect 16 0 13 0;
#X connect 17 0 13 0;
#X connect 18 0 13 0;
#X connect 19 0 13 0;
#X connect 20 0 14 0;
#X connect 20 0 15 0;
#X connect 20 0 16 0;
#X connect 20 0 17 0;
#X connect 20 0 18 0;
#X connect 20 0 19 0;
#X connect 21 0 1 0;
#X connect 21 0 3 0;
#X connect 21 0 6 0;
#X connect 21 0 7 0;
#X connect 21 0 10 0;
#X connect 21 0 11 0;
#X connect 22 0 21 0;
#X connect 23 0 24 0;
#X connect 24 0 22 0;
#X connect 24 1 20 0;
#X connect 25 0 20 0;
#X restore 195 628 pd samples;
#X obj 195 611 hradio 15 1 0 2 nos nor empty 0 -8 0 10 -262144 -1 -1
0;
#X msg 34 596 \; pd dsp 1;
#X obj 34 577 loadbang;
#X text 195 299 patternA;
#N canvas 0 368 581 423 patt2sequencerA 0;
#X obj 234 26 inlet;
#X obj 100 169 pack;
#X obj 130 169 pack;
#X obj 160 226 pack;
#X obj 234 225 pack;
#X obj 234 49 list split 1;
#X obj 234 90 list;
#X obj 234 112 unpack f f f f f f f f f;
#X obj 287 170 pack;
#X obj 320 170 pack;
#X obj 352 169 pack;
#X obj 383 169 pack;
#N canvas 801 440 450 332 avoid 0;
#X obj 159 16 inlet;
#X obj 200 20 inlet;
#X obj 172 293 outlet;
#X obj 230 292 outlet;
#X obj 244 73 &;
#X obj 244 93 - 1;
#X obj 244 113 abs;
#X obj 214 44 t f f;
#X obj 157 165 spigot;
#X obj 214 165 spigot;
#X msg 244 239 0;
#X msg 271 239 1;
#X floatatom 281 160 5 0 0 0 - - -, f 5;
#X obj 244 133 t f f f;
#X obj 244 193 sel 0;
#X obj 244 213 t b b;
#X floatatom 282 74 5 0 0 0 - - -, f 5;
#X obj 157 44 t f b f;
#X obj 197 114 f;
#X connect 0 0 17 0;
#X connect 1 0 7 0;
#X connect 4 0 5 0;
#X connect 4 0 16 0;
#X connect 5 0 6 0;
#X connect 6 0 13 0;
#X connect 7 0 18 1;
#X connect 7 1 4 1;
#X connect 8 0 2 0;
#X connect 9 0 3 0;
#X connect 10 0 2 0;
#X connect 11 0 3 0;
#X connect 13 0 14 0;
#X connect 13 1 8 1;
#X connect 13 2 9 1;
#X connect 13 2 12 0;
#X connect 14 0 15 0;
#X connect 15 0 10 0;
#X connect 15 1 11 0;
#X connect 17 0 8 0;
#X connect 17 1 18 0;
#X connect 17 2 4 0;
#X connect 18 0 9 0;
#X restore 195 197 pd avoid ch&oh;
#N canvas 331 388 450 300 w22l 0;
#X obj 111 112 s2l;
#X msg 162 95 symbol;
#X obj 162 75 loadbang;
#X obj 90 67 symbol;
#N canvas 0 69 1345 699 s2p4 0;
#X obj 221 94 inlet;
#X obj 321 138 sel a b c d e f g h i j k l m n o p;
#X obj 522 272 t f f f f b;
#X obj 615 370 list;
#X obj 525 617 list;
#X obj 503 375 list append;
#X obj 504 346 > 0;
#X obj 519 643 outlet;
#X obj 221 113 t b s;
#X obj 522 253 f;
#X msg 357 192 0;
#X msg 385 192 1;
#X msg 412 193 2;
#X msg 437 194 3;
#X msg 463 194 4;
#X msg 492 193 5;
#X msg 520 192 6;
#X msg 547 192 7;
#X msg 575 191 8;
#X msg 604 192 9;
#X msg 631 192 10;
#X msg 660 193 11;
#X msg 686 193 12;
#X msg 711 194 13;
#X msg 739 194 14;
#X msg 766 194 15;
#X obj 478 304 & 1;
#X obj 502 305 & 2;
#X obj 527 304 & 4;
#X obj 552 304 & 8;
#X connect 0 0 8 0;
#X connect 1 0 10 0;
#X connect 1 1 11 0;
#X connect 1 2 12 0;
#X connect 1 3 13 0;
#X connect 1 4 14 0;
#X connect 1 5 15 0;
#X connect 1 6 16 0;
#X connect 1 7 17 0;
#X connect 1 8 18 0;
#X connect 1 9 19 0;
#X connect 1 10 20 0;
#X connect 1 11 21 0;
#X connect 1 12 22 0;
#X connect 1 13 23 0;
#X connect 1 14 24 0;
#X connect 1 15 25 0;
#X connect 2 0 26 0;
#X connect 2 1 27 0;
#X connect 2 2 28 0;
#X connect 2 3 29 0;
#X connect 2 4 5 1;
#X connect 3 0 5 1;
#X connect 4 0 7 0;
#X connect 5 0 3 0;
#X connect 5 0 4 1;
#X connect 6 0 5 0;
#X connect 8 0 4 0;
#X connect 8 1 1 0;
#X connect 9 0 2 0;
#X connect 10 0 9 0;
#X connect 11 0 9 0;
#X connect 12 0 9 0;
#X connect 13 0 9 0;
#X connect 14 0 9 0;
#X connect 15 0 9 0;
#X connect 16 0 9 0;
#X connect 17 0 9 0;
#X connect 18 0 9 0;
#X connect 19 0 9 0;
#X connect 20 0 9 0;
#X connect 21 0 9 0;
#X connect 22 0 9 0;
#X connect 23 0 9 0;
#X connect 24 0 9 0;
#X connect 25 0 9 0;
#X connect 26 0 6 0;
#X connect 27 0 6 0;
#X connect 28 0 6 0;
#X connect 29 0 6 0;
#X restore 101 158 pd s2p4;
#N canvas 0 69 1345 699 s2p4 0;
#X obj 262 75 inlet;
#X obj 321 138 sel a b c d e f g h i j k l m n o p;
#X obj 522 272 t f f f f b;
#X obj 615 370 list;
#X obj 525 617 list;
#X obj 503 375 list append;
#X obj 504 346 > 0;
#X obj 519 643 outlet;
#X obj 221 113 t b s;
#X obj 522 253 f;
#X msg 357 192 0;
#X msg 385 192 1;
#X msg 412 193 2;
#X msg 437 194 3;
#X msg 463 194 4;
#X msg 492 193 5;
#X msg 520 192 6;
#X msg 547 192 7;
#X msg 575 191 8;
#X msg 604 192 9;
#X msg 631 192 10;
#X msg 660 193 11;
#X msg 686 193 12;
#X msg 711 194 13;
#X msg 739 194 14;
#X msg 766 194 15;
#X obj 478 304 & 1;
#X obj 502 304 & 2;
#X obj 527 304 & 4;
#X obj 552 304 & 8;
#X connect 0 0 8 0;
#X connect 1 0 10 0;
#X connect 1 1 11 0;
#X connect 1 2 12 0;
#X connect 1 3 13 0;
#X connect 1 4 14 0;
#X connect 1 5 15 0;
#X connect 1 6 16 0;
#X connect 1 7 17 0;
#X connect 1 8 18 0;
#X connect 1 9 19 0;
#X connect 1 10 20 0;
#X connect 1 11 21 0;
#X connect 1 12 22 0;
#X connect 1 13 23 0;
#X connect 1 14 24 0;
#X connect 1 15 25 0;
#X connect 2 0 26 0;
#X connect 2 1 27 0;
#X connect 2 2 28 0;
#X connect 2 3 29 0;
#X connect 2 4 5 1;
#X connect 3 0 5 1;
#X connect 4 0 7 0;
#X connect 5 0 3 0;
#X connect 5 0 4 1;
#X connect 6 0 5 0;
#X connect 8 0 4 0;
#X connect 8 1 1 0;
#X connect 9 0 2 0;
#X connect 10 0 9 0;
#X connect 11 0 9 0;
#X connect 12 0 9 0;
#X connect 13 0 9 0;
#X connect 14 0 9 0;
#X connect 15 0 9 0;
#X connect 16 0 9 0;
#X connect 17 0 9 0;
#X connect 18 0 9 0;
#X connect 19 0 9 0;
#X connect 20 0 9 0;
#X connect 21 0 9 0;
#X connect 22 0 9 0;
#X connect 23 0 9 0;
#X connect 24 0 9 0;
#X connect 25 0 9 0;
#X connect 26 0 6 0;
#X connect 27 0 6 0;
#X connect 28 0 6 0;
#X connect 29 0 6 0;
#X restore 151 158 pd s2p4;
#X obj 101 212 list;
#X obj 90 45 inlet;
#X obj 101 235 outlet;
#X obj 111 131 unpack s s;
#X connect 0 0 9 0;
#X connect 1 0 0 1;
#X connect 2 0 1 0;
#X connect 3 0 0 0;
#X connect 4 0 6 0;
#X connect 5 0 6 1;
#X connect 6 0 8 0;
#X connect 7 0 3 0;
#X connect 9 0 4 0;
#X connect 9 1 5 0;
#X restore 268 70 pd w22l;
#X obj 383 189 s A-hiconga-allocate;
#X obj 352 208 s A-loconga-allocate;
#X obj 320 229 s A-rimshot-allocate;
#X obj 287 248 s A-clap-allocate;
#X obj 234 268 s A-ohihat-allocate;
#X obj 160 288 s A-chihat-allocate;
#X obj 130 307 s A-snare-allocate;
#X obj 100 326 s A-kick-allocate;
#X connect 0 0 5 0;
#X connect 1 0 21 0;
#X connect 2 0 20 0;
#X connect 3 0 19 0;
#X connect 4 0 18 0;
#X connect 5 0 6 0;
#X connect 5 1 13 0;
#X connect 6 0 7 0;
#X connect 7 0 1 0;
#X connect 7 0 2 0;
#X connect 7 0 3 0;
#X connect 7 0 4 0;
#X connect 7 0 8 0;
#X connect 7 0 9 0;
#X connect 7 0 10 0;
#X connect 7 0 11 0;
#X connect 7 1 1 1;
#X connect 7 2 2 1;
#X connect 7 3 12 0;
#X connect 7 4 12 1;
#X connect 7 5 8 1;
#X connect 7 6 9 1;
#X connect 7 7 10 1;
#X connect 7 8 11 1;
#X connect 8 0 17 0;
#X connect 9 0 16 0;
#X connect 10 0 15 0;
#X connect 11 0 14 0;
#X connect 12 0 3 1;
#X connect 12 1 4 1;
#X connect 13 0 6 1;
#X restore 72 293 pd patt2sequencerA;
#X obj 57 373 onset32_small A-kick;
#X obj 57 363 onset32_small A-snare;
#X obj 57 353 onset32_small A-chihat;
#X obj 57 343 onset32_small A-ohihat;
#X obj 57 333 onset32_small A-clap;
#X obj 57 323 onset32_small A-rimshot;
#X obj 387 373 onset32_small B-kick;
#X obj 387 363 onset32_small B-snare;
#X obj 387 353 onset32_small B-chihat;
#X obj 387 343 onset32_small B-ohihat;
#X obj 387 333 onset32_small B-clap;
#X obj 387 323 onset32_small B-rimshot;
#X text 511 306 patternB;
#N canvas 371 455 450 300 extractfromstream 0;
#X msg 178 102 32;
#X obj 178 140 +;
#X obj 252 123 * 32;
#X obj 178 83 t b f;
#X floatatom 178 64 5 0 0 0 - - -, f 5;
#X obj 178 178 list split 1;
#X obj 178 197 pack s f;
#X msg 178 217 \$2 \$1;
#X text 212 64 pattern to extract;
#X obj 142 41 inlet;
#X obj 178 238 outlet;
#N canvas 830 473 450 300 iterate 0;
#X obj 72 26 inlet;
#X obj 72 53 route bang;
#X obj 129 93 until;
#X obj 129 112 f;
#X obj 161 127 + 1;
#X obj 129 162 outlet;
#X msg 181 89 0;
#X obj 129 74 t f b;
#X connect 0 0 1 0;
#X connect 1 1 7 0;
#X connect 2 0 3 0;
#X connect 3 0 4 0;
#X connect 3 0 5 0;
#X connect 4 0 3 1;
#X connect 6 0 3 1;
#X connect 7 0 2 0;
#X connect 7 1 6 0;
#X restore 178 120 pd iterate;
#X obj 178 159 coll \$0-raw-dataset;
#C restore;
#X connect 0 0 11 0;
#X connect 1 0 12 0;
#X connect 2 0 1 1;
#X connect 3 0 0 0;
#X connect 3 1 2 0;
#X connect 4 0 3 0;
#X connect 5 0 6 0;
#X connect 5 1 6 1;
#X connect 6 0 7 0;
#X connect 7 0 10 0;
#X connect 9 0 3 0;
#X connect 11 0 1 0;
#X connect 12 0 5 0;
#X restore 453 235 pd extractfromstream;
#N canvas 0 360 581 423 patt2sequencerB 0;
#X obj 234 26 inlet;
#X obj 100 169 pack;
#X obj 130 169 pack;
#X obj 160 226 pack;
#X obj 234 225 pack;
#X obj 234 49 list split 1;
#X obj 234 90 list;
#X obj 234 112 unpack f f f f f f f f f;
#X obj 287 170 pack;
#X obj 320 170 pack;
#X obj 352 169 pack;
#X obj 383 169 pack;
#N canvas 801 440 450 332 avoid 0;
#X obj 159 16 inlet;
#X obj 200 20 inlet;
#X obj 172 293 outlet;
#X obj 230 292 outlet;
#X obj 244 73 &;
#X obj 244 93 - 1;
#X obj 244 113 abs;
#X obj 214 44 t f f;
#X obj 157 165 spigot;
#X obj 214 165 spigot;
#X msg 244 239 0;
#X msg 271 239 1;
#X floatatom 281 160 5 0 0 0 - - -, f 5;
#X obj 244 133 t f f f;
#X obj 244 193 sel 0;
#X obj 244 213 t b b;
#X floatatom 282 74 5 0 0 0 - - -, f 5;
#X obj 157 44 t f b f;
#X obj 197 114 f;
#X connect 0 0 17 0;
#X connect 1 0 7 0;
#X connect 4 0 5 0;
#X connect 4 0 16 0;
#X connect 5 0 6 0;
#X connect 6 0 13 0;
#X connect 7 0 18 1;
#X connect 7 1 4 1;
#X connect 8 0 2 0;
#X connect 9 0 3 0;
#X connect 10 0 2 0;
#X connect 11 0 3 0;
#X connect 13 0 14 0;
#X connect 13 1 8 1;
#X connect 13 2 9 1;
#X connect 13 2 12 0;
#X connect 14 0 15 0;
#X connect 15 0 10 0;
#X connect 15 1 11 0;
#X connect 17 0 8 0;
#X connect 17 1 18 0;
#X connect 17 2 4 0;
#X connect 18 0 9 0;
#X restore 195 197 pd avoid ch&oh;
#N canvas 331 388 450 300 w22l 0;
#X obj 111 112 s2l;
#X msg 162 95 symbol;
#X obj 162 75 loadbang;
#X obj 90 67 symbol;
#N canvas 0 69 1345 699 s2p4 0;
#X obj 221 94 inlet;
#X obj 321 138 sel a b c d e f g h i j k l m n o p;
#X obj 522 272 t f f f f b;
#X obj 615 370 list;
#X obj 525 617 list;
#X obj 503 375 list append;
#X obj 504 346 > 0;
#X obj 519 643 outlet;
#X obj 221 113 t b s;
#X obj 522 253 f;
#X msg 357 192 0;
#X msg 385 192 1;
#X msg 412 193 2;
#X msg 437 194 3;
#X msg 463 194 4;
#X msg 492 193 5;
#X msg 520 192 6;
#X msg 547 192 7;
#X msg 575 191 8;
#X msg 604 192 9;
#X msg 631 192 10;
#X msg 660 193 11;
#X msg 686 193 12;
#X msg 711 194 13;
#X msg 739 194 14;
#X msg 766 194 15;
#X obj 478 304 & 1;
#X obj 502 305 & 2;
#X obj 527 304 & 4;
#X obj 552 304 & 8;
#X connect 0 0 8 0;
#X connect 1 0 10 0;
#X connect 1 1 11 0;
#X connect 1 2 12 0;
#X connect 1 3 13 0;
#X connect 1 4 14 0;
#X connect 1 5 15 0;
#X connect 1 6 16 0;
#X connect 1 7 17 0;
#X connect 1 8 18 0;
#X connect 1 9 19 0;
#X connect 1 10 20 0;
#X connect 1 11 21 0;
#X connect 1 12 22 0;
#X connect 1 13 23 0;
#X connect 1 14 24 0;
#X connect 1 15 25 0;
#X connect 2 0 26 0;
#X connect 2 1 27 0;
#X connect 2 2 28 0;
#X connect 2 3 29 0;
#X connect 2 4 5 1;
#X connect 3 0 5 1;
#X connect 4 0 7 0;
#X connect 5 0 3 0;
#X connect 5 0 4 1;
#X connect 6 0 5 0;
#X connect 8 0 4 0;
#X connect 8 1 1 0;
#X connect 9 0 2 0;
#X connect 10 0 9 0;
#X connect 11 0 9 0;
#X connect 12 0 9 0;
#X connect 13 0 9 0;
#X connect 14 0 9 0;
#X connect 15 0 9 0;
#X connect 16 0 9 0;
#X connect 17 0 9 0;
#X connect 18 0 9 0;
#X connect 19 0 9 0;
#X connect 20 0 9 0;
#X connect 21 0 9 0;
#X connect 22 0 9 0;
#X connect 23 0 9 0;
#X connect 24 0 9 0;
#X connect 25 0 9 0;
#X connect 26 0 6 0;
#X connect 27 0 6 0;
#X connect 28 0 6 0;
#X connect 29 0 6 0;
#X restore 101 158 pd s2p4;
#N canvas 0 69 1345 699 s2p4 0;
#X obj 262 75 inlet;
#X obj 321 138 sel a b c d e f g h i j k l m n o p;
#X obj 522 272 t f f f f b;
#X obj 615 370 list;
#X obj 525 617 list;
#X obj 503 375 list append;
#X obj 504 346 > 0;
#X obj 519 643 outlet;
#X obj 221 113 t b s;
#X obj 522 253 f;
#X msg 357 192 0;
#X msg 385 192 1;
#X msg 412 193 2;
#X msg 437 194 3;
#X msg 463 194 4;
#X msg 492 193 5;
#X msg 520 192 6;
#X msg 547 192 7;
#X msg 575 191 8;
#X msg 604 192 9;
#X msg 631 192 10;
#X msg 660 193 11;
#X msg 686 193 12;
#X msg 711 194 13;
#X msg 739 194 14;
#X msg 766 194 15;
#X obj 478 304 & 1;
#X obj 502 304 & 2;
#X obj 527 304 & 4;
#X obj 552 304 & 8;
#X connect 0 0 8 0;
#X connect 1 0 10 0;
#X connect 1 1 11 0;
#X connect 1 2 12 0;
#X connect 1 3 13 0;
#X connect 1 4 14 0;
#X connect 1 5 15 0;
#X connect 1 6 16 0;
#X connect 1 7 17 0;
#X connect 1 8 18 0;
#X connect 1 9 19 0;
#X connect 1 10 20 0;
#X connect 1 11 21 0;
#X connect 1 12 22 0;
#X connect 1 13 23 0;
#X connect 1 14 24 0;
#X connect 1 15 25 0;
#X connect 2 0 26 0;
#X connect 2 1 27 0;
#X connect 2 2 28 0;
#X connect 2 3 29 0;
#X connect 2 4 5 1;
#X connect 3 0 5 1;
#X connect 4 0 7 0;
#X connect 5 0 3 0;
#X connect 5 0 4 1;
#X connect 6 0 5 0;
#X connect 8 0 4 0;
#X connect 8 1 1 0;
#X connect 9 0 2 0;
#X connect 10 0 9 0;
#X connect 11 0 9 0;
#X connect 12 0 9 0;
#X connect 13 0 9 0;
#X connect 14 0 9 0;
#X connect 15 0 9 0;
#X connect 16 0 9 0;
#X connect 17 0 9 0;
#X connect 18 0 9 0;
#X connect 19 0 9 0;
#X connect 20 0 9 0;
#X connect 21 0 9 0;
#X connect 22 0 9 0;
#X connect 23 0 9 0;
#X connect 24 0 9 0;
#X connect 25 0 9 0;
#X connect 26 0 6 0;
#X connect 27 0 6 0;
#X connect 28 0 6 0;
#X connect 29 0 6 0;
#X restore 151 158 pd s2p4;
#X obj 101 212 list;
#X obj 90 45 inlet;
#X obj 101 235 outlet;
#X obj 111 131 unpack s s;
#X connect 0 0 9 0;
#X connect 1 0 0 1;
#X connect 2 0 1 0;
#X connect 3 0 0 0;
#X connect 4 0 6 0;
#X connect 5 0 6 1;
#X connect 6 0 8 0;
#X connect 7 0 3 0;
#X connect 9 0 4 0;
#X connect 9 1 5 0;
#X restore 268 70 pd w22l;
#X obj 383 189 s B-hiconga-allocate;
#X obj 352 208 s B-loconga-allocate;
#X obj 320 229 s B-rimshot-allocate;
#X obj 287 248 s B-clap-allocate;
#X obj 234 268 s B-ohihat-allocate;
#X obj 160 288 s B-chihat-allocate;
#X obj 130 307 s B-snare-allocate;
#X obj 100 327 s B-kick-allocate;
#X connect 0 0 5 0;
#X connect 1 0 21 0;
#X connect 2 0 20 0;
#X connect 3 0 19 0;
#X connect 4 0 18 0;
#X connect 5 0 6 0;
#X connect 5 1 13 0;
#X connect 6 0 7 0;
#X connect 7 0 1 0;
#X connect 7 0 2 0;
#X connect 7 0 3 0;
#X connect 7 0 4 0;
#X connect 7 0 8 0;
#X connect 7 0 9 0;
#X connect 7 0 10 0;
#X connect 7 0 11 0;
#X connect 7 1 1 1;
#X connect 7 2 2 1;
#X connect 7 3 12 0;
#X connect 7 4 12 1;
#X connect 7 5 8 1;
#X connect 7 6 9 1;
#X connect 7 7 10 1;
#X connect 7 8 11 1;
#X connect 8 0 17 0;
#X connect 9 0 16 0;
#X connect 10 0 15 0;
#X connect 11 0 14 0;
#X connect 12 0 3 1;
#X connect 12 1 4 1;
#X connect 13 0 6 1;
#X restore 453 290 pd patt2sequencerB;
#N canvas 162 477 450 300 extractfromstream 0;
#X msg 178 102 32;
#X obj 178 140 +;
#X obj 252 123 * 32;
#X obj 178 83 t b f;
#X floatatom 178 64 5 0 0 0 - - -, f 5;
#X obj 178 178 list split 1;
#X obj 178 197 pack s f;
#X msg 178 217 \$2 \$1;
#X text 212 64 pattern to extract;
#X obj 142 41 inlet;
#X obj 178 238 outlet;
#N canvas 866 468 450 300 iterate 0;
#X obj 72 26 inlet;
#X obj 72 53 route bang;
#X obj 129 93 until;
#X obj 129 112 f;
#X obj 161 127 + 1;
#X obj 129 162 outlet;
#X msg 181 89 0;
#X obj 129 74 t f b;
#X connect 0 0 1 0;
#X connect 1 1 7 0;
#X connect 2 0 3 0;
#X connect 3 0 4 0;
#X connect 3 0 5 0;
#X connect 4 0 3 1;
#X connect 6 0 3 1;
#X connect 7 0 2 0;
#X connect 7 1 6 0;
#X restore 178 120 pd iterate;
#X obj 178 159 coll \$0-raw-dataset;
#C restore;
#X connect 0 0 11 0;
#X connect 1 0 12 0;
#X connect 2 0 1 1;
#X connect 3 0 0 0;
#X connect 3 1 2 0;
#X connect 4 0 3 0;
#X connect 5 0 6 0;
#X connect 5 1 6 1;
#X connect 6 0 7 0;
#X connect 7 0 10 0;
#X connect 9 0 3 0;
#X connect 11 0 1 0;
#X connect 12 0 5 0;
#X restore 782 235 pd extractfromstream;
#N canvas 0 370 581 423 patt2sequencerC 0;
#X obj 234 26 inlet;
#X obj 100 169 pack;
#X obj 130 169 pack;
#X obj 160 226 pack;
#X obj 234 225 pack;
#X obj 234 49 list split 1;
#X obj 234 90 list;
#X obj 234 112 unpack f f f f f f f f f;
#X obj 287 170 pack;
#X obj 320 170 pack;
#X obj 352 169 pack;
#X obj 383 169 pack;
#N canvas 801 440 450 332 avoid 0;
#X obj 159 16 inlet;
#X obj 200 20 inlet;
#X obj 172 293 outlet;
#X obj 230 292 outlet;
#X obj 244 73 &;
#X obj 244 93 - 1;
#X obj 244 113 abs;
#X obj 214 44 t f f;
#X obj 157 165 spigot;
#X obj 214 165 spigot;
#X msg 244 239 0;
#X msg 271 239 1;
#X floatatom 281 160 5 0 0 0 - - -, f 5;
#X obj 244 133 t f f f;
#X obj 244 193 sel 0;
#X obj 244 213 t b b;
#X floatatom 282 74 5 0 0 0 - - -, f 5;
#X obj 157 44 t f b f;
#X obj 197 114 f;
#X connect 0 0 17 0;
#X connect 1 0 7 0;
#X connect 4 0 5 0;
#X connect 4 0 16 0;
#X connect 5 0 6 0;
#X connect 6 0 13 0;
#X connect 7 0 18 1;
#X connect 7 1 4 1;
#X connect 8 0 2 0;
#X connect 9 0 3 0;
#X connect 10 0 2 0;
#X connect 11 0 3 0;
#X connect 13 0 14 0;
#X connect 13 1 8 1;
#X connect 13 2 9 1;
#X connect 13 2 12 0;
#X connect 14 0 15 0;
#X connect 15 0 10 0;
#X connect 15 1 11 0;
#X connect 17 0 8 0;
#X connect 17 1 18 0;
#X connect 17 2 4 0;
#X connect 18 0 9 0;
#X restore 195 197 pd avoid ch&oh;
#N canvas 325 398 450 300 w22l 0;
#X obj 111 112 s2l;
#X msg 162 95 symbol;
#X obj 162 75 loadbang;
#X obj 111 65 symbol;
#N canvas 0 87 1265 699 s2p4 0;
#X obj 221 94 inlet;
#X obj 321 138 sel a b c d e f g h i j k l m n o p;
#X obj 522 272 t f f f f b;
#X obj 615 370 list;
#X obj 525 617 list;
#X obj 503 375 list append;
#X obj 504 346 > 0;
#X obj 519 643 outlet;
#X obj 221 113 t b s;
#X obj 522 253 f;
#X msg 357 192 0;
#X msg 385 192 1;
#X msg 412 193 2;
#X msg 437 194 3;
#X msg 463 194 4;
#X msg 492 193 5;
#X msg 520 192 6;
#X msg 547 192 7;
#X msg 575 191 8;
#X msg 604 192 9;
#X msg 631 192 10;
#X msg 660 193 11;
#X msg 686 193 12;
#X msg 711 194 13;
#X msg 739 194 14;
#X msg 766 194 15;
#X obj 478 304 & 1;
#X obj 502 305 & 2;
#X obj 527 304 & 4;
#X obj 552 304 & 8;
#X connect 0 0 8 0;
#X connect 1 0 10 0;
#X connect 1 1 11 0;
#X connect 1 2 12 0;
#X connect 1 3 13 0;
#X connect 1 4 14 0;
#X connect 1 5 15 0;
#X connect 1 6 16 0;
#X connect 1 7 17 0;
#X connect 1 8 18 0;
#X connect 1 9 19 0;
#X connect 1 10 20 0;
#X connect 1 11 21 0;
#X connect 1 12 22 0;
#X connect 1 13 23 0;
#X connect 1 14 24 0;
#X connect 1 15 25 0;
#X connect 2 0 26 0;
#X connect 2 1 27 0;
#X connect 2 2 28 0;
#X connect 2 3 29 0;
#X connect 2 4 5 1;
#X connect 3 0 5 1;
#X connect 4 0 7 0;
#X connect 5 0 3 0;
#X connect 5 0 4 1;
#X connect 6 0 5 0;
#X connect 8 0 4 0;
#X connect 8 1 1 0;
#X connect 9 0 2 0;
#X connect 10 0 9 0;
#X connect 11 0 9 0;
#X connect 12 0 9 0;
#X connect 13 0 9 0;
#X connect 14 0 9 0;
#X connect 15 0 9 0;
#X connect 16 0 9 0;
#X connect 17 0 9 0;
#X connect 18 0 9 0;
#X connect 19 0 9 0;
#X connect 20 0 9 0;
#X connect 21 0 9 0;
#X connect 22 0 9 0;
#X connect 23 0 9 0;
#X connect 24 0 9 0;
#X connect 25 0 9 0;
#X connect 26 0 6 0;
#X connect 27 0 6 0;
#X connect 28 0 6 0;
#X connect 29 0 6 0;
#X restore 101 158 pd s2p4;
#N canvas 0 69 1345 699 s2p4 0;
#X obj 262 75 inlet;
#X obj 321 138 sel a b c d e f g h i j k l m n o p;
#X obj 522 272 t f f f f b;
#X obj 615 370 list;
#X obj 525 617 list;
#X obj 503 375 list append;
#X obj 504 346 > 0;
#X obj 519 643 outlet;
#X obj 221 113 t b s;
#X obj 522 253 f;
#X msg 357 192 0;
#X msg 385 192 1;
#X msg 412 193 2;
#X msg 437 194 3;
#X msg 463 194 4;
#X msg 492 193 5;
#X msg 520 192 6;
#X msg 547 192 7;
#X msg 575 191 8;
#X msg 604 192 9;
#X msg 631 192 10;
#X msg 660 193 11;
#X msg 686 193 12;
#X msg 711 194 13;
#X msg 739 194 14;
#X msg 766 194 15;
#X obj 478 304 & 1;
#X obj 502 304 & 2;
#X obj 527 304 & 4;
#X obj 552 304 & 8;
#X connect 0 0 8 0;
#X connect 1 0 10 0;
#X connect 1 1 11 0;
#X connect 1 2 12 0;
#X connect 1 3 13 0;
#X connect 1 4 14 0;
#X connect 1 5 15 0;
#X connect 1 6 16 0;
#X connect 1 7 17 0;
#X connect 1 8 18 0;
#X connect 1 9 19 0;
#X connect 1 10 20 0;
#X connect 1 11 21 0;
#X connect 1 12 22 0;
#X connect 1 13 23 0;
#X connect 1 14 24 0;
#X connect 1 15 25 0;
#X connect 2 0 26 0;
#X connect 2 1 27 0;
#X connect 2 2 28 0;
#X connect 2 3 29 0;
#X connect 2 4 5 1;
#X connect 3 0 5 1;
#X connect 4 0 7 0;
#X connect 5 0 3 0;
#X connect 5 0 4 1;
#X connect 6 0 5 0;
#X connect 8 0 4 0;
#X connect 8 1 1 0;
#X connect 9 0 2 0;
#X connect 10 0 9 0;
#X connect 11 0 9 0;
#X connect 12 0 9 0;
#X connect 13 0 9 0;
#X connect 14 0 9 0;
#X connect 15 0 9 0;
#X connect 16 0 9 0;
#X connect 17 0 9 0;
#X connect 18 0 9 0;
#X connect 19 0 9 0;
#X connect 20 0 9 0;
#X connect 21 0 9 0;
#X connect 22 0 9 0;
#X connect 23 0 9 0;
#X connect 24 0 9 0;
#X connect 25 0 9 0;
#X connect 26 0 6 0;
#X connect 27 0 6 0;
#X connect 28 0 6 0;
#X connect 29 0 6 0;
#X restore 151 158 pd s2p4;
#X obj 101 212 list;
#X obj 111 43 inlet;
#X obj 101 235 outlet;
#X obj 111 131 unpack s s;
#X connect 0 0 9 0;
#X connect 1 0 0 1;
#X connect 2 0 1 0;
#X connect 3 0 0 0;
#X connect 4 0 6 0;
#X connect 5 0 6 1;
#X connect 6 0 8 0;
#X connect 7 0 3 0;
#X connect 9 0 4 0;
#X connect 9 1 5 0;
#X restore 268 70 pd w22l;
#X obj 383 189 s C-hiconga-allocate;
#X obj 352 208 s C-loconga-allocate;
#X obj 320 229 s C-rimshot-allocate;
#X obj 287 248 s C-clap-allocate;
#X obj 234 268 s C-ohihat-allocate;
#X obj 160 288 s C-chihat-allocate;
#X obj 130 307 s C-snare-allocate;
#X obj 100 327 s C-kick-allocate;
#X connect 0 0 5 0;
#X connect 1 0 21 0;
#X connect 2 0 20 0;
#X connect 3 0 19 0;
#X connect 4 0 18 0;
#X connect 5 0 6 0;
#X connect 5 1 13 0;
#X connect 6 0 7 0;
#X connect 7 0 1 0;
#X connect 7 0 2 0;
#X connect 7 0 3 0;
#X connect 7 0 4 0;
#X connect 7 0 8 0;
#X connect 7 0 9 0;
#X connect 7 0 10 0;
#X connect 7 0 11 0;
#X connect 7 1 1 1;
#X connect 7 2 2 1;
#X connect 7 3 12 0;
#X connect 7 4 12 1;
#X connect 7 5 8 1;
#X connect 7 6 9 1;
#X connect 7 7 10 1;
#X connect 7 8 11 1;
#X connect 8 0 17 0;
#X connect 9 0 16 0;
#X connect 10 0 15 0;
#X connect 11 0 14 0;
#X connect 12 0 3 1;
#X connect 12 1 4 1;
#X connect 13 0 6 1;
#X restore 782 290 pd patt2sequencerC;
#X obj 717 373 onset32_small C-kick;
#X obj 717 363 onset32_small C-snare;
#X obj 717 353 onset32_small C-chihat;
#X obj 717 343 onset32_small C-ohihat;
#X obj 717 333 onset32_small C-clap;
#X obj 717 323 onset32_small C-rimshot;
#X text 817 303 patternC;
#X obj 133 270 s \$0-to3mix;
#X obj 514 271 s \$0-to3mix;
#X obj 844 271 s \$0-to3mix;
#X obj 530 161 s \$0-fromviza;
#X msg 162 217 \$1;
#X msg 196 217 \$2;
#X msg 531 218 \$3;
#X msg 577 218 \$4;
#X msg 849 218 \$5;
#X msg 907 218 \$6;
#X obj 133 251 list append;
#X obj 530 180 r \$0-fromviza;
#X obj 514 252 list append;
#X obj 844 252 list append;
#X obj 615 159 s \$0-clear;
#N canvas 550 288 399 451 generate 0;
#X msg 7 33 32;
#X obj 7 84 until;
#X obj 7 104 random 1000;
#X obj 7 125 * 0.001;
#X obj 96 163 f;
#X obj 123 164 + 1;
#X obj 7 52 t f b;
#X msg 95 76 0;
#X obj 7 146 t f b;
#N canvas 0 69 450 300 (subpatch) 0;
#X array \$0-random-steps 32 float 0;
#X coords 0 1 31 0 256 50 1 0 0;
#X restore 130 98 graph;
#X obj 7 1 inlet bang;
#X msg 7 280 32;
#X obj 200 336 random 100;
#X obj 200 355 * 0.01;
#X obj 26 392 clip 0 1;
#X obj 26 372 +;
#X obj 46 430 tabwrite \$0-random-steps;
#X obj 46 411 pack f f;
#X obj 7 194 tabwrite \$0-random-steps-temp;
#N canvas 0 69 450 300 (subpatch) 0;
#X array \$0-random-steps-temp 32 float 0;
#X coords 0 1 31 0 256 50 1 0 0;
#X restore 130 35 graph;
#X obj 26 345 tabread \$0-random-steps-temp;
#X obj 285 208 inlet;
#X obj 211 263 t b f;
#X obj 238 297 * 100;
#X obj 211 225 f;
#X obj 211 206 metro 1000;
#X obj 268 160 r sixteenth-time;
#X obj 268 179 * 16;
#X obj 73 34 loadbang;
#N canvas 830 473 450 300 iterate 0;
#X obj 72 26 inlet;
#X obj 72 53 route bang;
#X obj 129 93 until;
#X obj 129 112 f;
#X obj 161 127 + 1;
#X obj 129 162 outlet;
#X msg 181 89 0;
#X obj 129 74 t f b;
#X connect 0 0 1 0;
#X connect 1 1 7 0;
#X connect 2 0 3 0;
#X connect 3 0 4 0;
#X connect 3 0 5 0;
#X connect 4 0 3 1;
#X connect 6 0 3 1;
#X connect 7 0 2 0;
#X connect 7 1 6 0;
#X restore 7 300 pd iterate;
#X obj 2 430 outlet;
#X obj 7 320 t b f b f;
#X obj 285 255 t f f;
#X obj 312 276 != 0;
#X obj 312 295 change;
#X connect 0 0 6 0;
#X connect 1 0 2 0;
#X connect 2 0 3 0;
#X connect 3 0 8 0;
#X connect 4 0 5 0;
#X connect 4 0 18 1;
#X connect 5 0 4 1;
#X connect 6 0 1 0;
#X connect 6 1 7 0;
#X connect 7 0 4 1;
#X connect 8 0 18 0;
#X connect 8 1 4 0;
#X connect 10 0 0 0;
#X connect 10 0 11 0;
#X connect 11 0 29 0;
#X connect 12 0 13 0;
#X connect 13 0 15 1;
#X connect 14 0 17 0;
#X connect 15 0 14 0;
#X connect 17 0 16 0;
#X connect 20 0 15 0;
#X connect 21 0 32 0;
#X connect 22 0 11 0;
#X connect 22 1 23 0;
#X connect 23 0 12 1;
#X connect 24 0 22 0;
#X connect 25 0 24 0;
#X connect 26 0 27 0;
#X connect 27 0 25 1;
#X connect 28 0 0 0;
#X connect 28 0 11 0;
#X connect 29 0 31 0;
#X connect 31 0 30 0;
#X connect 31 1 20 0;
#X connect 31 2 12 0;
#X connect 31 3 17 1;
#X connect 32 0 24 1;
#X connect 32 1 33 0;
#X connect 33 0 34 0;
#X connect 34 0 25 0;
#X restore 345 606 pd generate new random list;
#X obj 504 587 r \$0-bbv;
#X obj 345 587 r \$0-generate-drumz;
#X obj 511 142 t b a b;
#X obj 429 159 s \$0-create;
#X obj 420 463 onset32_small D-kick;
#X obj 420 453 onset32_small D-snare;
#X obj 420 443 onset32_small D-chihat;
#X obj 420 433 onset32_small D-ohihat;
#X obj 420 424 onset32_small D-clap;
#X obj 420 415 onset32_small D-rimshot;
#X text 570 577 load a coll with index and patterns;
#X obj 345 625 s \$0-create;
#X obj 511 123 list;
#X text 516 391 Resulting pattern. Pattern D;
#X obj 60 404 cnv 15 350 100 empty empty empty 20 12 0 14 -233017 -66577
0;
#X obj 70 451 tgl 40 0 start-drumz st start 0 19 0 14 -262144 -1 -1
0 1;
#X obj 120 476 nbx 4 18 0 200 0 1 bpm tap-bpm BPM 0 -8 1 20 -262144
-1 -1 120 256;
#X obj 212 448 vsl 15 40 0 1 0 1 \$0-volume nor vol 0 -9 1 10 -262144
-1 -1 1300 1;
#X obj 297 476 hsl 100 15 0 1 0 0 \$0-bbv nor empty -2 -8 0 10 -262144
-1 -1 0 1;
#X obj 247 460 bng 30 250 50 0 \$0-generate-drumz nor new 3 14 1 14
-262144 -1 -1;
#X text 309 459 variation;
#X text 172 405 C O N T R O L L S;
#X obj 420 488 hradio 10 1 0 32 empty numberz32 empty 0 -8 0 10 -262144
-1 -1 29;
#X obj 779 99 cnv 15 400 100 empty empty empty 20 12 0 14 -192061 -66577
0;
#N canvas 15 93 1265 680 interpolation 0;
#N canvas 460 339 450 418 list2random 0;
#X obj 75 13 inlet list;
#X obj 235 267 +;
#X obj 262 267 f;
#X msg 262 49 0;
#X obj 235 289 >=;
#X obj 149 172 list;
#X obj 149 153 t b a;
#X obj 176 219 list split 1;
#X obj 235 308 sel 1;
#X obj 235 361 symbol;
#X msg 176 200 \$2 \$1;
#X obj 75 32 t b a b b;
#X msg 109 53 2;
#X obj 92 102 list split;
#X msg 354 85 0;
#X obj 235 327 t b b;
#X obj 92 129 route bang;
#X obj 235 381 outlet;
#X obj 320 272 inlet random number;
#X connect 0 0 11 0;
#X connect 1 0 2 0;
#X connect 1 0 4 0;
#X connect 2 0 1 1;
#X connect 3 0 2 0;
#X connect 4 0 8 0;
#X connect 5 0 13 0;
#X connect 6 0 5 0;
#X connect 6 1 10 0;
#X connect 7 0 1 0;
#X connect 7 1 9 1;
#X connect 8 0 15 0;
#X connect 9 0 17 0;
#X connect 10 0 7 0;
#X connect 11 1 13 0;
#X connect 11 2 12 0;
#X connect 11 3 3 0;
#X connect 12 0 13 1;
#X connect 13 0 16 0;
#X connect 13 1 5 1;
#X connect 14 0 13 1;
#X connect 15 0 9 0;
#X connect 15 1 14 0;
#X connect 16 1 6 0;
#X connect 18 0 4 1;
#X restore 49 340 pd list2random;
#X obj 49 359 pack s f;
#X msg 49 378 \$2 \$1;
#X obj 130 318 tabread \$0-random-steps;
#X obj 49 321 coll \$0-3mix;
#C restore;
#X obj 49 301 t f f f;
#N canvas 0 365 581 423 patt2sequencerD 0;
#X obj 234 26 inlet;
#X obj 100 169 pack;
#X obj 130 169 pack;
#X obj 160 226 pack;
#X obj 234 225 pack;
#X obj 234 49 list split 1;
#X obj 234 90 list;
#X obj 234 112 unpack f f f f f f f f f;
#X obj 287 170 pack;
#X obj 320 170 pack;
#X obj 352 169 pack;
#X obj 383 169 pack;
#N canvas 801 440 450 332 avoid 0;
#X obj 159 16 inlet;
#X obj 200 20 inlet;
#X obj 172 293 outlet;
#X obj 230 292 outlet;
#X obj 244 73 &;
#X obj 244 93 - 1;
#X obj 244 113 abs;
#X obj 214 44 t f f;
#X obj 157 165 spigot;
#X obj 214 165 spigot;
#X msg 244 239 0;
#X msg 271 239 1;
#X floatatom 281 160 5 0 0 0 - - -, f 5;
#X obj 244 133 t f f f;
#X obj 244 193 sel 0;
#X obj 244 213 t b b;
#X floatatom 282 74 5 0 0 0 - - -, f 5;
#X obj 157 44 t f b f;
#X obj 197 114 f;
#X connect 0 0 17 0;
#X connect 1 0 7 0;
#X connect 4 0 5 0;
#X connect 4 0 16 0;
#X connect 5 0 6 0;
#X connect 6 0 13 0;
#X connect 7 0 18 1;
#X connect 7 1 4 1;
#X connect 8 0 2 0;
#X connect 9 0 3 0;
#X connect 10 0 2 0;
#X connect 11 0 3 0;
#X connect 13 0 14 0;
#X connect 13 1 8 1;
#X connect 13 2 9 1;
#X connect 13 2 12 0;
#X connect 14 0 15 0;
#X connect 15 0 10 0;
#X connect 15 1 11 0;
#X connect 17 0 8 0;
#X connect 17 1 18 0;
#X connect 17 2 4 0;
#X connect 18 0 9 0;
#X restore 195 197 pd avoid ch&oh;
#N canvas 331 388 450 300 w22l 0;
#X obj 111 112 s2l;
#X msg 162 95 symbol;
#X obj 162 75 loadbang;
#X obj 90 67 symbol;
#N canvas 0 69 1345 699 s2p4 0;
#X obj 221 94 inlet;
#X obj 321 138 sel a b c d e f g h i j k l m n o p;
#X obj 522 272 t f f f f b;
#X obj 615 370 list;
#X obj 525 617 list;
#X obj 503 375 list append;
#X obj 504 346 > 0;
#X obj 519 643 outlet;
#X obj 221 113 t b s;
#X obj 522 253 f;
#X msg 357 192 0;
#X msg 385 192 1;
#X msg 412 193 2;
#X msg 437 194 3;
#X msg 463 194 4;
#X msg 492 193 5;
#X msg 520 192 6;
#X msg 547 192 7;
#X msg 575 191 8;
#X msg 604 192 9;
#X msg 631 192 10;
#X msg 660 193 11;
#X msg 686 193 12;
#X msg 711 194 13;
#X msg 739 194 14;
#X msg 766 194 15;
#X obj 478 304 & 1;
#X obj 502 305 & 2;
#X obj 527 304 & 4;
#X obj 552 304 & 8;
#X connect 0 0 8 0;
#X connect 1 0 10 0;
#X connect 1 1 11 0;
#X connect 1 2 12 0;
#X connect 1 3 13 0;
#X connect 1 4 14 0;
#X connect 1 5 15 0;
#X connect 1 6 16 0;
#X connect 1 7 17 0;
#X connect 1 8 18 0;
#X connect 1 9 19 0;
#X connect 1 10 20 0;
#X connect 1 11 21 0;
#X connect 1 12 22 0;
#X connect 1 13 23 0;
#X connect 1 14 24 0;
#X connect 1 15 25 0;
#X connect 2 0 26 0;
#X connect 2 1 27 0;
#X connect 2 2 28 0;
#X connect 2 3 29 0;
#X connect 2 4 5 1;
#X connect 3 0 5 1;
#X connect 4 0 7 0;
#X connect 5 0 3 0;
#X connect 5 0 4 1;
#X connect 6 0 5 0;
#X connect 8 0 4 0;
#X connect 8 1 1 0;
#X connect 9 0 2 0;
#X connect 10 0 9 0;
#X connect 11 0 9 0;
#X connect 12 0 9 0;
#X connect 13 0 9 0;
#X connect 14 0 9 0;
#X connect 15 0 9 0;
#X connect 16 0 9 0;
#X connect 17 0 9 0;
#X connect 18 0 9 0;
#X connect 19 0 9 0;
#X connect 20 0 9 0;
#X connect 21 0 9 0;
#X connect 22 0 9 0;
#X connect 23 0 9 0;
#X connect 24 0 9 0;
#X connect 25 0 9 0;
#X connect 26 0 6 0;
#X connect 27 0 6 0;
#X connect 28 0 6 0;
#X connect 29 0 6 0;
#X restore 101 158 pd s2p4;
#N canvas 0 69 1345 699 s2p4 0;
#X obj 262 75 inlet;
#X obj 321 138 sel a b c d e f g h i j k l m n o p;
#X obj 522 272 t f f f f b;
#X obj 615 370 list;
#X obj 525 617 list;
#X obj 503 375 list append;
#X obj 504 346 > 0;
#X obj 519 643 outlet;
#X obj 221 113 t b s;
#X obj 522 253 f;
#X msg 357 192 0;
#X msg 385 192 1;
#X msg 412 193 2;
#X msg 437 194 3;
#X msg 463 194 4;
#X msg 492 193 5;
#X msg 520 192 6;
#X msg 547 192 7;
#X msg 575 191 8;
#X msg 604 192 9;
#X msg 631 192 10;
#X msg 660 193 11;
#X msg 686 193 12;
#X msg 711 194 13;
#X msg 739 194 14;
#X msg 766 194 15;
#X obj 478 304 & 1;
#X obj 502 304 & 2;
#X obj 527 304 & 4;
#X obj 552 304 & 8;
#X connect 0 0 8 0;
#X connect 1 0 10 0;
#X connect 1 1 11 0;
#X connect 1 2 12 0;
#X connect 1 3 13 0;
#X connect 1 4 14 0;
#X connect 1 5 15 0;
#X connect 1 6 16 0;
#X connect 1 7 17 0;
#X connect 1 8 18 0;
#X connect 1 9 19 0;
#X connect 1 10 20 0;
#X connect 1 11 21 0;
#X connect 1 12 22 0;
#X connect 1 13 23 0;
#X connect 1 14 24 0;
#X connect 1 15 25 0;
#X connect 2 0 26 0;
#X connect 2 1 27 0;
#X connect 2 2 28 0;
#X connect 2 3 29 0;
#X connect 2 4 5 1;
#X connect 3 0 5 1;
#X connect 4 0 7 0;
#X connect 5 0 3 0;
#X connect 5 0 4 1;
#X connect 6 0 5 0;
#X connect 8 0 4 0;
#X connect 8 1 1 0;
#X connect 9 0 2 0;
#X connect 10 0 9 0;
#X connect 11 0 9 0;
#X connect 12 0 9 0;
#X connect 13 0 9 0;
#X connect 14 0 9 0;
#X connect 15 0 9 0;
#X connect 16 0 9 0;
#X connect 17 0 9 0;
#X connect 18 0 9 0;
#X connect 19 0 9 0;
#X connect 20 0 9 0;
#X connect 21 0 9 0;
#X connect 22 0 9 0;
#X connect 23 0 9 0;
#X connect 24 0 9 0;
#X connect 25 0 9 0;
#X connect 26 0 6 0;
#X connect 27 0 6 0;
#X connect 28 0 6 0;
#X connect 29 0 6 0;
#X restore 151 158 pd s2p4;
#X obj 101 212 list;
#X obj 90 45 inlet;
#X obj 101 235 outlet;
#X obj 111 131 unpack s s;
#X connect 0 0 9 0;
#X connect 1 0 0 1;
#X connect 2 0 1 0;
#X connect 3 0 0 0;
#X connect 4 0 6 0;
#X connect 5 0 6 1;
#X connect 6 0 8 0;
#X connect 7 0 3 0;
#X connect 9 0 4 0;
#X connect 9 1 5 0;
#X restore 268 70 pd w22l;
#X obj 383 189 s D-hiconga-allocate;
#X obj 352 208 s D-loconga-allocate;
#X obj 320 229 s D-rimshot-allocate;
#X obj 287 248 s D-clap-allocate;
#X obj 234 268 s D-ohihat-allocate;
#X obj 160 288 s D-chihat-allocate;
#X obj 130 307 s D-snare-allocate;
#X obj 100 327 s D-kick-allocate;
#X connect 0 0 5 0;
#X connect 1 0 21 0;
#X connect 2 0 20 0;
#X connect 3 0 19 0;
#X connect 4 0 18 0;
#X connect 5 0 6 0;
#X connect 5 1 13 0;
#X connect 6 0 7 0;
#X connect 7 0 1 0;
#X connect 7 0 2 0;
#X connect 7 0 3 0;
#X connect 7 0 4 0;
#X connect 7 0 8 0;
#X connect 7 0 9 0;
#X connect 7 0 10 0;
#X connect 7 0 11 0;
#X connect 7 1 1 1;
#X connect 7 2 2 1;
#X connect 7 3 12 0;
#X connect 7 4 12 1;
#X connect 7 5 8 1;
#X connect 7 6 9 1;
#X connect 7 7 10 1;
#X connect 7 8 11 1;
#X connect 8 0 17 0;
#X connect 9 0 16 0;
#X connect 10 0 15 0;
#X connect 11 0 14 0;
#X connect 12 0 3 1;
#X connect 12 1 4 1;
#X connect 13 0 6 1;
#X restore 49 397 pd patt2sequencerD;
#X obj 475 97 r \$0-create;
#X text 14 53 este algoritmo usa numeros aleatorios para hacer el mix
entre los tres ritmos.;
#N canvas 0 365 581 423 patt2sequencerD 0;
#X obj 234 26 inlet;
#X obj 100 169 pack;
#X obj 130 169 pack;
#X obj 160 226 pack;
#X obj 234 225 pack;
#X obj 234 49 list split 1;
#X obj 234 90 list;
#X obj 234 112 unpack f f f f f f f f f;
#X obj 287 170 pack;
#X obj 320 170 pack;
#X obj 352 169 pack;
#X obj 383 169 pack;
#N canvas 801 440 450 332 avoid 0;
#X obj 159 16 inlet;
#X obj 200 20 inlet;
#X obj 172 293 outlet;
#X obj 230 292 outlet;
#X obj 244 73 &;
#X obj 244 93 - 1;
#X obj 244 113 abs;
#X obj 214 44 t f f;
#X obj 157 165 spigot;
#X obj 214 165 spigot;
#X msg 244 239 0;
#X msg 271 239 1;
#X floatatom 281 160 5 0 0 0 - - -, f 5;
#X obj 244 133 t f f f;
#X obj 244 193 sel 0;
#X obj 244 213 t b b;
#X floatatom 282 74 5 0 0 0 - - -, f 5;
#X obj 157 44 t f b f;
#X obj 197 114 f;
#X connect 0 0 17 0;
#X connect 1 0 7 0;
#X connect 4 0 5 0;
#X connect 4 0 16 0;
#X connect 5 0 6 0;
#X connect 6 0 13 0;
#X connect 7 0 18 1;
#X connect 7 1 4 1;
#X connect 8 0 2 0;
#X connect 9 0 3 0;
#X connect 10 0 2 0;
#X connect 11 0 3 0;
#X connect 13 0 14 0;
#X connect 13 1 8 1;
#X connect 13 2 9 1;
#X connect 13 2 12 0;
#X connect 14 0 15 0;
#X connect 15 0 10 0;
#X connect 15 1 11 0;
#X connect 17 0 8 0;
#X connect 17 1 18 0;
#X connect 17 2 4 0;
#X connect 18 0 9 0;
#X restore 195 197 pd avoid ch&oh;
#N canvas 331 388 450 300 w22l 0;
#X obj 111 112 s2l;
#X msg 162 95 symbol;
#X obj 162 75 loadbang;
#X obj 90 67 symbol;
#N canvas 0 69 1345 699 s2p4 0;
#X obj 221 94 inlet;
#X obj 321 138 sel a b c d e f g h i j k l m n o p;
#X obj 522 272 t f f f f b;
#X obj 615 370 list;
#X obj 525 617 list;
#X obj 503 375 list append;
#X obj 504 346 > 0;
#X obj 519 643 outlet;
#X obj 221 113 t b s;
#X obj 522 253 f;
#X msg 357 192 0;
#X msg 385 192 1;
#X msg 412 193 2;
#X msg 437 194 3;
#X msg 463 194 4;
#X msg 492 193 5;
#X msg 520 192 6;
#X msg 547 192 7;
#X msg 575 191 8;
#X msg 604 192 9;
#X msg 631 192 10;
#X msg 660 193 11;
#X msg 686 193 12;
#X msg 711 194 13;
#X msg 739 194 14;
#X msg 766 194 15;
#X obj 478 304 & 1;
#X obj 502 305 & 2;
#X obj 527 304 & 4;
#X obj 552 304 & 8;
#X connect 0 0 8 0;
#X connect 1 0 10 0;
#X connect 1 1 11 0;
#X connect 1 2 12 0;
#X connect 1 3 13 0;
#X connect 1 4 14 0;
#X connect 1 5 15 0;
#X connect 1 6 16 0;
#X connect 1 7 17 0;
#X connect 1 8 18 0;
#X connect 1 9 19 0;
#X connect 1 10 20 0;
#X connect 1 11 21 0;
#X connect 1 12 22 0;
#X connect 1 13 23 0;
#X connect 1 14 24 0;
#X connect 1 15 25 0;
#X connect 2 0 26 0;
#X connect 2 1 27 0;
#X connect 2 2 28 0;
#X connect 2 3 29 0;
#X connect 2 4 5 1;
#X connect 3 0 5 1;
#X connect 4 0 7 0;
#X connect 5 0 3 0;
#X connect 5 0 4 1;
#X connect 6 0 5 0;
#X connect 8 0 4 0;
#X connect 8 1 1 0;
#X connect 9 0 2 0;
#X connect 10 0 9 0;
#X connect 11 0 9 0;
#X connect 12 0 9 0;
#X connect 13 0 9 0;
#X connect 14 0 9 0;
#X connect 15 0 9 0;
#X connect 16 0 9 0;
#X connect 17 0 9 0;
#X connect 18 0 9 0;
#X connect 19 0 9 0;
#X connect 20 0 9 0;
#X connect 21 0 9 0;
#X connect 22 0 9 0;
#X connect 23 0 9 0;
#X connect 24 0 9 0;
#X connect 25 0 9 0;
#X connect 26 0 6 0;
#X connect 27 0 6 0;
#X connect 28 0 6 0;
#X connect 29 0 6 0;
#X restore 101 158 pd s2p4;
#N canvas 0 69 1345 699 s2p4 0;
#X obj 262 75 inlet;
#X obj 321 138 sel a b c d e f g h i j k l m n o p;
#X obj 522 272 t f f f f b;
#X obj 615 370 list;
#X obj 525 617 list;
#X obj 503 375 list append;
#X obj 504 346 > 0;
#X obj 519 643 outlet;
#X obj 221 113 t b s;
#X obj 522 253 f;
#X msg 357 192 0;
#X msg 385 192 1;
#X msg 412 193 2;
#X msg 437 194 3;
#X msg 463 194 4;
#X msg 492 193 5;
#X msg 520 192 6;
#X msg 547 192 7;
#X msg 575 191 8;
#X msg 604 192 9;
#X msg 631 192 10;
#X msg 660 193 11;
#X msg 686 193 12;
#X msg 711 194 13;
#X msg 739 194 14;
#X msg 766 194 15;
#X obj 478 304 & 1;
#X obj 502 304 & 2;
#X obj 527 304 & 4;
#X obj 552 304 & 8;
#X connect 0 0 8 0;
#X connect 1 0 10 0;
#X connect 1 1 11 0;
#X connect 1 2 12 0;
#X connect 1 3 13 0;
#X connect 1 4 14 0;
#X connect 1 5 15 0;
#X connect 1 6 16 0;
#X connect 1 7 17 0;
#X connect 1 8 18 0;
#X connect 1 9 19 0;
#X connect 1 10 20 0;
#X connect 1 11 21 0;
#X connect 1 12 22 0;
#X connect 1 13 23 0;
#X connect 1 14 24 0;
#X connect 1 15 25 0;
#X connect 2 0 26 0;
#X connect 2 1 27 0;
#X connect 2 2 28 0;
#X connect 2 3 29 0;
#X connect 2 4 5 1;
#X connect 3 0 5 1;
#X connect 4 0 7 0;
#X connect 5 0 3 0;
#X connect 5 0 4 1;
#X connect 6 0 5 0;
#X connect 8 0 4 0;
#X connect 8 1 1 0;
#X connect 9 0 2 0;
#X connect 10 0 9 0;
#X connect 11 0 9 0;
#X connect 12 0 9 0;
#X connect 13 0 9 0;
#X connect 14 0 9 0;
#X connect 15 0 9 0;
#X connect 16 0 9 0;
#X connect 17 0 9 0;
#X connect 18 0 9 0;
#X connect 19 0 9 0;
#X connect 20 0 9 0;
#X connect 21 0 9 0;
#X connect 22 0 9 0;
#X connect 23 0 9 0;
#X connect 24 0 9 0;
#X connect 25 0 9 0;
#X connect 26 0 6 0;
#X connect 27 0 6 0;
#X connect 28 0 6 0;
#X connect 29 0 6 0;
#X restore 151 158 pd s2p4;
#X obj 101 212 list;
#X obj 90 45 inlet;
#X obj 101 235 outlet;
#X obj 111 131 unpack s s;
#X connect 0 0 9 0;
#X connect 1 0 0 1;
#X connect 2 0 1 0;
#X connect 3 0 0 0;
#X connect 4 0 6 0;
#X connect 5 0 6 1;
#X connect 6 0 8 0;
#X connect 7 0 3 0;
#X connect 9 0 4 0;
#X connect 9 1 5 0;
#X restore 268 70 pd w22l;
#X obj 383 189 s D-hiconga-allocate;
#X obj 352 208 s D-loconga-allocate;
#X obj 320 229 s D-rimshot-allocate;
#X obj 287 248 s D-clap-allocate;
#X obj 234 268 s D-ohihat-allocate;
#X obj 160 288 s D-chihat-allocate;
#X obj 130 307 s D-snare-allocate;
#X obj 100 327 s D-kick-allocate;
#X connect 0 0 5 0;
#X connect 1 0 21 0;
#X connect 2 0 20 0;
#X connect 3 0 19 0;
#X connect 4 0 18 0;
#X connect 5 0 6 0;
#X connect 5 1 13 0;
#X connect 6 0 7 0;
#X connect 7 0 1 0;
#X connect 7 0 2 0;
#X connect 7 0 3 0;
#X connect 7 0 4 0;
#X connect 7 0 8 0;
#X connect 7 0 9 0;
#X connect 7 0 10 0;
#X connect 7 0 11 0;
#X connect 7 1 1 1;
#X connect 7 2 2 1;
#X connect 7 3 12 0;
#X connect 7 4 12 1;
#X connect 7 5 8 1;
#X connect 7 6 9 1;
#X connect 7 7 10 1;
#X connect 7 8 11 1;
#X connect 8 0 17 0;
#X connect 9 0 16 0;
#X connect 10 0 15 0;
#X connect 11 0 14 0;
#X connect 12 0 3 1;
#X connect 12 1 4 1;
#X connect 13 0 6 1;
#X restore 519 624 pd patt2sequencerD;
#X obj 492 302 coll \$0-3mix;
#C restore;
#X obj 519 414 coll mix3-temporal;
#C restore;
#X obj 492 340 list split 2;
#X obj 537 374 list;
#X obj 492 360 t b a;
#X obj 492 321 t a b;
#X msg 571 338 clear;
#X msg 519 395 merge \$1 \$2;
#X obj 476 453 coll mix3-temporal;
#C restore;
#X msg 476 434 length;
#X obj 476 491 coll mix3-temporal;
#C restore;
#X obj 476 472 until;
#X obj 476 510 sum;
#X obj 476 529 pack f s;
#X obj 476 567 coll mix3-temporal-sum;
#C restore;
#X msg 476 548 merge \$2 \$1;
#X msg 380 550 sort 1 1 \, bang;
#X obj 519 586 pack s f;
#X msg 519 605 \$2 \$1;
#X obj 461 283 t b b f f b;
#X msg 635 300 clear;
#X text 360 48 Este algoritmo hace interpolación de ritmos basado
en las letras que simbolizan combos. La letra que tenga el weight mayor
en cada step es la letra elegida.;
#X text 14 77 Select at each step using a random number.;
#X text 52 34 Random Seeed Interpolation (RASIN);
#X text 445 31 STEp-by-step NAive (STENA);
#X text 777 18 Step-by-step EVent to Onsets and Density (STEVO-D);
#X text 760 46 This algorithm converts events to instruments then weights
and sums each isntrument. Then the list is ordered form highest weiight
to low. Then this list is divided in "pass" and "nopass" by a filter
which is an integrer number.;
#X obj 860 250 coll \$0-3mix;
#C restore;
#X obj 920 330 w22l;
#X obj 956 423 sum;
#N canvas 830 500 450 300 drip2 0;
#X obj 154 122 list split 2;
#X obj 199 156 list;
#X obj 154 142 t b a;
#X obj 154 103 t a b;
#X msg 233 120 clear;
#X obj 157 60 inlet;
#X obj 162 193 outlet;
#X connect 0 0 2 0;
#X connect 0 1 1 1;
#X connect 1 0 0 0;
#X connect 2 0 1 0;
#X connect 2 1 6 0;
#X connect 3 0 0 0;
#X connect 3 1 4 0;
#X connect 5 0 3 0;
#X restore 920 292 pd drip2;
#X obj 920 311 unpack s f;
#X obj 971 447 *;
#X obj 971 469 +;
#X obj 996 470 f;
#X msg 1088 286 0;
#X obj 956 488 f;
#X text 761 103 The filter is defined by summing the amount of onsets
at avery step (density) and then by applying a weight to that density.
The value is rounded to the lowest (or the highest?) and then used
as the filter to cut the pattern at each step.;
#X text 1014 519 should we truncate or round to find;
#X text 1015 532 the density profile?;
#X obj 920 349 t a a;
#N canvas 392 271 450 439 listsum 0;
#X obj 79 194 list split 1;
#X obj 60 166 t b a b;
#X obj 125 240 list;
#X obj 79 215 t b b f;
#X obj 163 194 list split 1;
#X obj 187 242 list;
#X obj 118 306 +;
#X obj 199 327 list;
#X obj 60 346 list;
#X obj 118 327 list prepend;
#X msg 163 162 0 0 0 0 0 0 0 0;
#X text 65 34 use feedback to accumulate the value of lists;
#X obj 60 144 inlet list;
#X obj 163 137 inlet bang to reset;
#X obj 57 369 outlet sum;
#X text 68 62 Note that it is preset to work with lists of 8 floats
\, this culd be tweaked for newer versions.;
#X obj 118 284 *;
#X obj 302 271 inlet weight;
#X connect 0 0 3 0;
#X connect 0 1 2 1;
#X connect 1 0 8 0;
#X connect 1 1 0 0;
#X connect 1 2 9 1;
#X connect 2 0 0 0;
#X connect 3 0 2 0;
#X connect 3 1 5 0;
#X connect 3 2 16 0;
#X connect 4 0 6 1;
#X connect 4 1 5 1;
#X connect 5 0 4 0;
#X connect 6 0 9 0;
#X connect 7 0 9 1;
#X connect 8 0 4 0;
#X connect 8 0 14 0;
#X connect 9 0 7 0;
#X connect 9 0 8 1;
#X connect 10 0 4 0;
#X connect 12 0 1 0;
#X connect 13 0 10 0;
#X connect 16 0 6 0;
#X connect 17 0 16 1;
#X restore 881 450 pd listsum;
#X obj 860 269 t b b a b;
#X obj 860 492 list;
#X obj 956 546 int;
#X obj 956 512 + 0.5;
#X obj 860 512 sort -1;
#X obj 899 565 list split;
#X text 996 508 <- This has impact on the algorithm.;
#N canvas 512 124 541 403 index2binarylist 0;
#X obj 148 150 t b f;
#X obj 265 163 list;
#X obj 148 122 list split 1;
#X msg 55 257 bang;
#X obj 55 277 \$0;
#X msg 55 297 \; \$1-table-i2b const 0;
#X obj 351 110 table \$0-table-i2b 8;
#X obj 175 214 tabwrite \$0-table-i2b;
#X msg 175 193 1;
#X obj 175 170 t b f;
#X obj 109 99 t b b a;
#X obj 121 245 tabdump \$0-table-i2b;
#X obj 121 272 outlet;
#X text 94 18 convert a list of indexes into a binary list of length
8 indexes in list are converted to 1 non mentioned indexes remain 0
;
#X text 330 92 the value 8 is fixed here;
#X obj 109 77 inlet list of indexes;
#X connect 0 0 1 0;
#X connect 0 1 9 0;
#X connect 1 0 2 0;
#X connect 2 0 0 0;
#X connect 2 1 1 1;
#X connect 3 0 4 0;
#X connect 4 0 5 0;
#X connect 8 0 7 0;
#X connect 9 0 8 0;
#X connect 9 1 7 1;
#X connect 10 0 3 0;
#X connect 10 1 11 0;
#X connect 10 2 2 0;
#X connect 11 0 12 0;
#X connect 15 0 10 0;
#X restore 899 585 pd index2binarylist;
#X obj 822 232 t f f;
#N canvas 0 352 581 423 patt2sequencerD 0;
#X obj 100 169 pack;
#X obj 130 169 pack;
#X obj 160 226 pack;
#X obj 234 225 pack;
#X obj 234 90 list;
#X obj 234 112 unpack f f f f f f f f f;
#X obj 287 170 pack;
#X obj 320 170 pack;
#X obj 352 169 pack;
#X obj 383 169 pack;
#N canvas 801 440 450 332 avoid 0;
#X obj 159 16 inlet;
#X obj 200 20 inlet;
#X obj 172 293 outlet;
#X obj 230 292 outlet;
#X obj 244 73 &;
#X obj 244 93 - 1;
#X obj 244 113 abs;
#X obj 214 44 t f f;
#X obj 157 165 spigot;
#X obj 214 165 spigot;
#X msg 244 239 0;
#X msg 271 239 1;
#X floatatom 281 160 5 0 0 0 - - -, f 5;
#X obj 244 133 t f f f;
#X obj 244 193 sel 0;
#X obj 244 213 t b b;
#X floatatom 282 74 5 0 0 0 - - -, f 5;
#X obj 157 44 t f b f;
#X obj 197 114 f;
#X connect 0 0 17 0;
#X connect 1 0 7 0;
#X connect 4 0 5 0;
#X connect 4 0 16 0;
#X connect 5 0 6 0;
#X connect 6 0 13 0;
#X connect 7 0 18 1;
#X connect 7 1 4 1;
#X connect 8 0 2 0;
#X connect 9 0 3 0;
#X connect 10 0 2 0;
#X connect 11 0 3 0;
#X connect 13 0 14 0;
#X connect 13 1 8 1;
#X connect 13 2 9 1;
#X connect 13 2 12 0;
#X connect 14 0 15 0;
#X connect 15 0 10 0;
#X connect 15 1 11 0;
#X connect 17 0 8 0;
#X connect 17 1 18 0;
#X connect 17 2 4 0;
#X connect 18 0 9 0;
#X restore 195 197 pd avoid ch&oh;
#X obj 383 189 s D-hiconga-allocate;
#X obj 352 208 s D-loconga-allocate;
#X obj 320 229 s D-rimshot-allocate;
#X obj 287 248 s D-clap-allocate;
#X obj 234 268 s D-ohihat-allocate;
#X obj 160 288 s D-chihat-allocate;
#X obj 130 307 s D-snare-allocate;
#X obj 100 327 s D-kick-allocate;
#X obj 234 27 inlet index;
#X obj 317 46 inlet list;
#X connect 0 0 18 0;
#X connect 1 0 17 0;
#X connect 2 0 16 0;
#X connect 3 0 15 0;
#X connect 4 0 5 0;
#X connect 5 0 0 0;
#X connect 5 0 1 0;
#X connect 5 0 2 0;
#X connect 5 0 3 0;
#X connect 5 0 6 0;
#X connect 5 0 7 0;
#X connect 5 0 8 0;
#X connect 5 0 9 0;
#X connect 5 1 0 1;
#X connect 5 2 1 1;
#X connect 5 3 10 0;
#X connect 5 4 10 1;
#X connect 5 5 6 1;
#X connect 5 6 7 1;
#X connect 5 7 8 1;
#X connect 5 8 9 1;
#X connect 6 0 14 0;
#X connect 7 0 13 0;
#X connect 8 0 12 0;
#X connect 9 0 11 0;
#X connect 10 0 2 1;
#X connect 10 1 3 1;
#X connect 19 0 4 0;
#X connect 20 0 4 1;
#X restore 822 608 pd patt2sequencerD;
#X obj 977 341 t f f;
#X obj 578 137 inlet select algorithm;
#X obj 475 154 pack;
#X msg 475 116 32;
#N canvas 827 450 450 300 iterate 0;
#X obj 72 26 inlet;
#X obj 72 53 route bang;
#X obj 129 93 until;
#X obj 129 112 f;
#X obj 161 127 + 1;
#X obj 129 162 outlet;
#X msg 181 89 0;
#X obj 129 74 t f b;
#X connect 0 0 1 0;
#X connect 1 1 7 0;
#X connect 2 0 3 0;
#X connect 3 0 4 0;
#X connect 3 0 5 0;
#X connect 4 0 3 1;
#X connect 6 0 3 1;
#X connect 7 0 2 0;
#X connect 7 1 6 0;
#X restore 475 135 pd iterate;
#X msg 475 173 \$2 \$1;
#X obj 475 192 route 0 1 2;
#X connect 0 0 1 0;
#X connect 1 0 2 0;
#X connect 2 0 6 0;
#X connect 3 0 0 1;
#X connect 4 0 0 0;
#X connect 5 0 4 0;
#X connect 5 1 3 0;
#X connect 5 2 1 1;
#X connect 7 0 65 0;
#X connect 10 0 15 0;
#X connect 12 0 14 0;
#X connect 12 1 13 1;
#X connect 13 0 12 0;
#X connect 14 0 13 0;
#X connect 14 1 17 0;
#X connect 15 0 12 0;
#X connect 15 1 16 0;
#X connect 16 0 11 0;
#X connect 17 0 11 0;
#X connect 18 0 21 0;
#X connect 19 0 18 0;
#X connect 20 0 22 0;
#X connect 20 1 23 1;
#X connect 21 0 20 0;
#X connect 22 0 23 0;
#X connect 23 0 25 0;
#X connect 24 1 27 0;
#X connect 25 0 24 0;
#X connect 26 0 24 0;
#X connect 27 0 28 0;
#X connect 28 0 9 0;
#X connect 29 0 26 0;
#X connect 29 1 19 0;
#X connect 29 2 10 0;
#X connect 29 3 27 1;
#X connect 29 4 30 0;
#X connect 30 0 24 0;
#X connect 37 0 52 0;
#X connect 38 0 50 0;
#X connect 39 0 42 0;
#X connect 40 0 41 0;
#X connect 41 0 38 0;
#X connect 41 1 62 0;
#X connect 42 0 43 0;
#X connect 43 0 44 0;
#X connect 43 0 46 1;
#X connect 44 0 43 1;
#X connect 45 0 43 1;
#X connect 45 0 51 1;
#X connect 46 0 55 0;
#X connect 50 0 51 0;
#X connect 50 1 39 0;
#X connect 51 0 53 1;
#X connect 52 0 53 0;
#X connect 52 1 46 0;
#X connect 52 2 40 0;
#X connect 52 3 45 0;
#X connect 53 0 56 0;
#X connect 54 0 57 1;
#X connect 55 0 54 0;
#X connect 56 1 57 0;
#X connect 57 0 59 0;
#X connect 59 0 61 1;
#X connect 60 0 61 0;
#X connect 60 1 37 0;
#X connect 62 0 51 2;
#X connect 62 1 42 1;
#X connect 63 0 64 1;
#X connect 64 0 67 0;
#X connect 65 0 66 0;
#X connect 66 0 64 0;
#X connect 67 0 68 0;
#X connect 68 0 5 0;
#X connect 68 1 29 0;
#X connect 68 2 60 0;
#X restore 897 129 pd interpolation algorithms;
#X text 803 143 README;
#X text 798 153 The main thing about this patch is to test differenet
interpolation algortithms. inside this subpatch we will find the possible
approaches;
#X obj 512 89 t a a;
#X text 552 86 check if the list has changed;
#N canvas 580 279 667 300 check4change 0;
#X obj 128 31 inlet list of indexes and weights;
#X obj 128 53 unpack f f f f f f;
#X obj 149 104 change;
#X obj 191 89 change;
#X obj 233 79 change;
#X msg 191 147 1;
#X obj 73 156 t b b;
#X obj 176 251 outlet;
#X obj 176 201 f;
#X msg 73 176 0;
#X obj 176 226 sel 1;
#X text 276 163 send a bang only when any of the weights is changed
\, and at most once every sixteenth note;
#X obj 31 98 r sixteenth-time;
#X obj 20 129 metro;
#X obj 18 60 loadbang;
#X connect 0 0 1 0;
#X connect 1 1 2 0;
#X connect 1 3 3 0;
#X connect 1 5 4 0;
#X connect 2 0 5 0;
#X connect 3 0 5 0;
#X connect 4 0 5 0;
#X connect 5 0 8 1;
#X connect 6 0 9 0;
#X connect 6 1 8 0;
#X connect 8 0 10 0;
#X connect 9 0 8 1;
#X connect 10 0 7 0;
#X connect 12 0 13 1;
#X connect 13 0 6 0;
#X connect 14 0 13 0;
#X restore 414 106 pd check4change;
#X obj 785 476 coll \$0-3mix;
#C restore;
#X obj 785 419 r \$0-to3mix;
#X obj 785 438 list prepend merge;
#X obj 785 457 list trim;
#X obj 900 438 r \$0-clear;
#X msg 900 459 clear;
#X text 773 403 Prepare a coll with weigted events at each step.;
#X obj 530 199 t a a a a a a;
#X text 958 111 select algorithm (0 to 2);
#X obj 897 112 nbx 5 14 0 2 0 1 empty empty empty 0 -8 0 10 -262144
-1 -1 2 256;
#X obj 512 66 inlet list of index weight;
#X msg 572 614 read E3patts.txt;
#X connect 1 0 101 0;
#X connect 2 0 19 0;
#X connect 2 0 54 0;
#X connect 12 0 11 0;
#X connect 13 0 10 0;
#X connect 15 0 14 0;
#X connect 17 0 16 0;
#X connect 33 0 34 0;
#X connect 33 0 56 0;
#X connect 35 0 36 0;
#X connect 35 0 57 0;
#X connect 48 0 2 0;
#X connect 49 0 54 1;
#X connect 50 0 33 0;
#X connect 51 0 56 1;
#X connect 52 0 35 0;
#X connect 53 0 57 1;
#X connect 54 0 44 0;
#X connect 55 0 97 0;
#X connect 56 0 45 0;
#X connect 57 0 46 0;
#X connect 59 0 71 0;
#X connect 60 0 59 1;
#X connect 61 0 59 0;
#X connect 62 0 63 0;
#X connect 62 1 47 0;
#X connect 62 2 58 0;
#X connect 72 0 62 0;
#X connect 87 0 89 0;
#X connect 87 1 72 1;
#X connect 89 0 72 0;
#X connect 91 0 92 0;
#X connect 92 0 93 0;
#X connect 93 0 90 0;
#X connect 94 0 95 0;
#X connect 95 0 90 0;
#X connect 97 0 48 0;
#X connect 97 1 49 0;
#X connect 97 2 50 0;
#X connect 97 3 51 0;
#X connect 97 4 52 0;
#X connect 97 5 53 0;
#X connect 99 0 84 0;
#X connect 100 0 87 0;
#X connect 101 0 0 0;
