#N canvas 561 152 455 380 10;
#X obj 101 101 cnv 11 10 11 empty \$0-rect empty 20 12 0 14 -33289
-166441 0;
#X msg 294 176 \; \$1-rect vis_size \$2 \$3;
#X obj 363 133 \$0;
#X obj 294 116 t a b;
#X obj 294 152 list prepend;
#X msg 294 97 10 \$1;
#X floatatom 294 81 5 1 11 0 - - -, f 5;
#X msg 194 176 \; \$1-rect size \$3;
#X obj 187 259 \$0;
#X obj 118 278 list prepend;
#X text 333 78 size;
#X msg 118 302 \; \$1-rect color \$2 1 1;
#X obj 118 242 t f b;
#X msg 152 222 12;
#X msg 118 222 0;
#X obj 118 203 sel 0 1;
#X obj 118 185 tgl 15 0 empty empty empty 17 7 0 10 -262144 -1 -1 1
1;
#X connect 2 0 4 1;
#X connect 3 0 4 0;
#X connect 3 1 2 0;
#X connect 4 0 1 0;
#X connect 4 0 7 0;
#X connect 5 0 3 0;
#X connect 6 0 5 0;
#X connect 8 0 9 1;
#X connect 9 0 11 0;
#X connect 12 0 9 0;
#X connect 12 1 8 0;
#X connect 13 0 12 0;
#X connect 14 0 12 0;
#X connect 15 0 14 0;
#X connect 15 1 13 0;
#X connect 16 0 15 0;
#X coords 0 -1 1 1 85 60 2 100 100;
