#N canvas 473 34 828 619 10;
#X declare -path py;
#X obj 1 1 cnv 15 800 600 empty empty empty 20 12 0 14 -33289 -66577
0;
#X obj 519 167 cnv 15 30 30 empty empty techno 40 20 1 30 -258113 -191407
0;
#X obj 519 207 cnv 15 30 30 empty empty house 40 20 1 30 -4160 -191407
0;
#X obj 519 250 cnv 15 30 30 empty empty breakbeat 40 20 1 30 -4034
-191407 0;
#X obj 519 82 tgl 30 0 start-button mouseclick play/stop 40 20 1 30
-262144 -1 -191407 0 1;
#X obj 3 80 gcanvas 500 500;
#X obj 3 63 r lines;
#X obj 49 63 r rect;
#X msg 145 63 reset;
#X obj 10 16 cnv 15 15 15 empty empty EDM_Rhythm_Space -10 12 1 50
-33289 -228856 0;
#X obj 521 126 hsl 160 30 60 160 0 1 gui-BPM nor BPM 60 18 1 20 -262144
-1 -1 8700 1;
#N canvas 601 435 741 389 stuff 0;
#X obj 8 27 declare -path py;
#X obj 118 27 py;
#X msg 331 212 reload;
#X msg 77 252 build;
#X obj 94 214 coll positions;
#C restore;
#X msg 94 195 dump;
#N canvas 0 50 449 291 drawtriangle 0;
#N canvas 0 50 450 300 drawaline 0;
#X obj 99 232 s lines;
#X obj 99 194 pack f f f f;
#X obj 99 108 unpack f f;
#X obj 219 116 unpack f f;
#X obj 204 177 -;
#X obj 261 177 -;
#X obj 261 155 f;
#X obj 204 155 f;
#X obj 156 146 t f b f;
#X obj 99 146 t f b f;
#X obj 65 35 inlet;
#X obj 185 45 inlet;
#X msg 99 213 line grey \$1 \$2 \$3 \$4;
#X obj 99 127 * 500;
#X obj 156 127 * 500;
#X obj 219 135 * 500;
#X obj 276 135 * 500;
#X connect 1 0 12 0;
#X connect 2 0 13 0;
#X connect 2 1 14 0;
#X connect 3 0 15 0;
#X connect 3 1 16 0;
#X connect 4 0 1 2;
#X connect 5 0 1 3;
#X connect 6 0 5 0;
#X connect 7 0 4 0;
#X connect 8 0 1 1;
#X connect 8 1 6 0;
#X connect 8 2 5 1;
#X connect 9 0 1 0;
#X connect 9 1 7 0;
#X connect 9 2 4 1;
#X connect 10 0 2 0;
#X connect 11 0 3 0;
#X connect 12 0 0 0;
#X connect 13 0 9 0;
#X connect 14 0 8 0;
#X connect 15 0 7 1;
#X connect 16 0 6 1;
#X restore 299 210 pd drawaline;
#X obj 208 131 inlet index list;
#X obj 208 152 unpack f f f f f f;
#X obj 204 182 pack f f;
#X obj 262 183 pack f f;
#X obj 319 183 pack f f;
#N canvas 0 50 450 300 drawaline 0;
#X obj 99 232 s lines;
#X obj 99 194 pack f f f f;
#X obj 99 108 unpack f f;
#X obj 219 116 unpack f f;
#X obj 204 177 -;
#X obj 261 177 -;
#X obj 261 155 f;
#X obj 204 155 f;
#X obj 156 146 t f b f;
#X obj 99 146 t f b f;
#X obj 65 35 inlet;
#X obj 185 45 inlet;
#X msg 99 213 line grey \$1 \$2 \$3 \$4;
#X obj 99 127 * 500;
#X obj 156 127 * 500;
#X obj 219 135 * 500;
#X obj 276 135 * 500;
#X connect 1 0 12 0;
#X connect 2 0 13 0;
#X connect 2 1 14 0;
#X connect 3 0 15 0;
#X connect 3 1 16 0;
#X connect 4 0 1 2;
#X connect 5 0 1 3;
#X connect 6 0 5 0;
#X connect 7 0 4 0;
#X connect 8 0 1 1;
#X connect 8 1 6 0;
#X connect 8 2 5 1;
#X connect 9 0 1 0;
#X connect 9 1 7 0;
#X connect 9 2 4 1;
#X connect 10 0 2 0;
#X connect 11 0 3 0;
#X connect 12 0 0 0;
#X connect 13 0 9 0;
#X connect 14 0 8 0;
#X connect 15 0 7 1;
#X connect 16 0 6 1;
#X restore 213 210 pd drawaline;
#N canvas 0 50 450 300 drawaline 0;
#X obj 99 232 s lines;
#X obj 99 194 pack f f f f;
#X obj 99 108 unpack f f;
#X obj 219 116 unpack f f;
#X obj 204 177 -;
#X obj 261 177 -;
#X obj 261 155 f;
#X obj 204 155 f;
#X obj 156 146 t f b f;
#X obj 99 146 t f b f;
#X obj 65 35 inlet;
#X obj 185 45 inlet;
#X msg 99 213 line grey \$1 \$2 \$3 \$4;
#X obj 99 127 * 500;
#X obj 156 127 * 500;
#X obj 219 135 * 500;
#X obj 276 135 * 500;
#X connect 1 0 12 0;
#X connect 2 0 13 0;
#X connect 2 1 14 0;
#X connect 3 0 15 0;
#X connect 3 1 16 0;
#X connect 4 0 1 2;
#X connect 5 0 1 3;
#X connect 6 0 5 0;
#X connect 7 0 4 0;
#X connect 8 0 1 1;
#X connect 8 1 6 0;
#X connect 8 2 5 1;
#X connect 9 0 1 0;
#X connect 9 1 7 0;
#X connect 9 2 4 1;
#X connect 10 0 2 0;
#X connect 11 0 3 0;
#X connect 12 0 0 0;
#X connect 13 0 9 0;
#X connect 14 0 8 0;
#X connect 15 0 7 1;
#X connect 16 0 6 1;
#X restore 127 210 pd drawaline;
#X connect 1 0 2 0;
#X connect 2 0 3 0;
#X connect 2 1 3 1;
#X connect 2 2 4 0;
#X connect 2 3 4 1;
#X connect 2 4 5 0;
#X connect 2 5 5 1;
#X connect 3 0 7 0;
#X connect 3 0 6 0;
#X connect 4 0 7 1;
#X connect 4 0 0 0;
#X connect 5 0 0 1;
#X connect 5 0 6 1;
#X restore 19 347 pd drawtriangle;
#X msg 442 207 reload;
#X obj 94 233 list split 2;
#X obj 442 226 pyext dela.mouseover;
#X obj 19 289 pyext dela.maketri 2;
#N canvas 0 50 450 300 drawsquares 0;
#X msg 174 149 rect \$1 \$2 \$3 4 4;
#X obj 174 168 s rect;
#X obj 174 92 unpack s f f;
#X obj 174 130 pack s f f;
#X obj 185 70 inlet;
#X obj 238 111 * 496;
#X obj 202 111 * 496;
#X connect 0 0 1 0;
#X connect 2 0 3 0;
#X connect 2 1 6 0;
#X connect 2 2 5 0;
#X connect 3 0 0 0;
#X connect 4 0 2 0;
#X connect 5 0 3 2;
#X connect 6 0 3 1;
#X restore 58 328 pd drawsquares;
#X obj 77 66 loadbang;
#N canvas 1189 34 859 670 newinterpolator 0;
#N canvas 200 189 760 518 player 0;
#X obj 48 316 tabplay~ bass1;
#X obj 48 337 throw~ drum;
#X obj 21 226 list split 1;
#X obj 21 245 t b f;
#X obj 68 271 list;
#X obj 89 412 throw~ drum;
#X obj 89 372 tabplay~ rimshot;
#X obj 165 431 throw~ drum;
#X obj 165 391 tabplay~ snare1;
#X obj 165 411 *~ 1;
#X obj 174 353 throw~ drum;
#X obj 174 333 *~ 1;
#X obj 174 313 tabplay~ handclap;
#X msg 219 287 bang;
#X msg 138 190 39;
#X obj 276 432 throw~ drum;
#X obj 276 412 *~ 1;
#X obj 276 392 tabplay~ snare2;
#X obj 48 290 sel 35 36 37 38 39 40;
#X obj 378 326 sel 42;
#X obj 378 383 throw~ drum;
#X obj 378 307 f;
#X obj 378 345 tabplay~ hhc;
#X obj 89 392 *~ 0.25;
#X obj 458 381 throw~ drum;
#X obj 458 324 sel 43 41;
#X obj 555 381 throw~ drum;
#X obj 555 324 sel 44 46;
#X obj 635 381 throw~ drum;
#X obj 635 343 tabplay~ midtom;
#X obj 458 343 tabplay~ lowtom;
#X obj 635 324 sel 45 47;
#X obj 378 463 throw~ drum;
#X obj 378 444 *~ 0.5;
#X obj 378 425 tabplay~ ma;
#X obj 378 406 sel 70 69;
#X obj 555 343 tabplay~ hho;
#X msg 298 365 bang;
#X obj 276 332 sel 40;
#X obj 378 364 *~ 0.5;
#X obj 555 362 *~ 0.2;
#X obj 485 419 catch~ drum;
#X obj 485 445 dac~;
#X obj 21 165 f;
#X obj 47 165 + 1;
#X msg 169 127 0;
#X msg 21 111 bang;
#X obj 21 185 % 16;
#X obj 21 92 metro 125;
#X obj 21 204 coll interpolated;
#C restore;
#X obj 21 34 route start bpm;
#X obj 64 53 BPM;
#X obj 21 15 inlet;
#X obj 21 132 t b b;
#X text 201 129 Tweak this to make it a super dense sampler;
#X obj 96 127 s \$0-tick;
#X obj 64 72 / 1;
#X obj 216 199 s movinghead;
#X obj 29 62 t a b;
#X obj 545 442 s~ graba;
#X obj 635 362 *~ 0.35;
#X obj 458 362 *~ 0.35;
#X connect 0 0 1 0;
#X connect 2 0 3 0;
#X connect 2 1 4 1;
#X connect 3 0 4 0;
#X connect 3 1 18 0;
#X connect 3 1 21 0;
#X connect 4 0 2 0;
#X connect 6 0 23 0;
#X connect 8 0 9 0;
#X connect 9 0 7 0;
#X connect 11 0 10 0;
#X connect 12 0 11 0;
#X connect 13 0 12 0;
#X connect 14 0 18 0;
#X connect 16 0 15 0;
#X connect 17 0 16 0;
#X connect 18 0 0 0;
#X connect 18 1 0 0;
#X connect 18 2 6 0;
#X connect 18 3 8 0;
#X connect 18 4 12 0;
#X connect 19 0 22 0;
#X connect 21 0 19 0;
#X connect 21 0 25 0;
#X connect 21 0 27 0;
#X connect 21 0 31 0;
#X connect 21 0 35 0;
#X connect 21 0 38 0;
#X connect 22 0 39 0;
#X connect 23 0 5 0;
#X connect 25 0 30 0;
#X connect 25 1 30 0;
#X connect 27 0 36 0;
#X connect 27 1 36 0;
#X connect 29 0 60 0;
#X connect 30 0 61 0;
#X connect 31 0 29 0;
#X connect 31 1 29 0;
#X connect 33 0 32 0;
#X connect 34 0 33 0;
#X connect 35 0 34 0;
#X connect 35 1 34 0;
#X connect 36 0 40 0;
#X connect 37 0 17 0;
#X connect 38 0 17 0;
#X connect 39 0 20 0;
#X connect 40 0 26 0;
#X connect 41 0 42 0;
#X connect 41 0 42 1;
#X connect 41 0 59 0;
#X connect 43 0 44 0;
#X connect 43 0 47 0;
#X connect 44 0 43 1;
#X connect 45 0 43 1;
#X connect 46 0 53 0;
#X connect 47 0 49 0;
#X connect 47 0 57 0;
#X connect 48 0 46 0;
#X connect 49 0 2 0;
#X connect 50 0 58 0;
#X connect 50 1 51 0;
#X connect 51 0 56 0;
#X connect 52 0 50 0;
#X connect 53 0 43 0;
#X connect 53 1 55 0;
#X connect 56 0 48 1;
#X connect 58 0 48 0;
#X connect 58 1 45 0;
#X connect 60 0 28 0;
#X connect 61 0 24 0;
#X restore 43 96 pd player;
#N canvas 524 111 557 308 e 0;
#X text 223 38 technoindustrial_AM;
#X text 68 36 technogrndinganalogue_AM;
#X text 349 39 technohardcore_CCM;
#X text 67 56 technochugging_AM;
#X text 350 60 deeptechhouse_AM;
#X text 69 77 breaksyntheticsubs_EH;
#X text 223 79 funkbreak_SA;
#X text 351 82 slowdeephouse_SA;
#X msg 230 171 dirtyhouse_SA;
#X text 223 59 dirtyhouse_SA;
#X msg 71 124 technogrindinganalogue_AM;
#X msg 231 124 technoindustrial_AM;
#X obj 71 238 s name;
#X msg 356 124 technohardcore_CCM;
#X msg 355 171 deeptechhouse_AM;
#X msg 230 212 breakfunkbreak_SA;
#X msg 71 212 breaksyntheticsubs_EH;
#X obj 71 105 r e1;
#X obj 231 105 r e2;
#X obj 356 105 r e3;
#X obj 71 152 r e4;
#X obj 230 152 r e5;
#X obj 355 152 r e6;
#X obj 71 192 r e7;
#X obj 230 192 r e8;
#X obj 355 192 r e9;
#X text 70 17 EXPERIMENT;
#X msg 71 171 deephouse_CCM;
#X msg 355 212 breakfunkydrummer_EH;
#X connect 8 0 12 0;
#X connect 10 0 12 0;
#X connect 11 0 12 0;
#X connect 13 0 12 0;
#X connect 14 0 12 0;
#X connect 15 0 12 0;
#X connect 16 0 12 0;
#X connect 17 0 10 0;
#X connect 18 0 11 0;
#X connect 19 0 13 0;
#X connect 20 0 27 0;
#X connect 21 0 8 0;
#X connect 22 0 14 0;
#X connect 23 0 16 0;
#X connect 24 0 15 0;
#X connect 25 0 28 0;
#X connect 27 0 12 0;
#X connect 28 0 12 0;
#X restore 612 333 pd e;
#X obj 202 22 inlet;
#N canvas 20 377 593 298 samples 0;
#X obj 24 195 soundfiler;
#X obj 90 195 table bass1;
#X msg 24 164 read -resize tr707/BassDrum1.wav bass1;
#X obj 172 195 table bass2;
#X msg 34 144 read -resize tr707/BassDrum2.wav bass2;
#X obj 244 195 table cowbell;
#X msg 44 124 read -resize tr707/CowBell.wav cowbell;
#X msg 54 104 read -resize tr707/HandClap.wav handclap;
#X obj 328 195 table handclap;
#X obj 90 216 table hhc;
#X msg 304 104 read -resize tr707/HhC.wav hhc;
#X msg 294 124 read -resize tr707/HhO.wav hho;
#X obj 172 216 table hho;
#X obj 244 216 table lowtom;
#X msg 284 144 read -resize tr707/LowTom.wav lowtom;
#X obj 328 216 table snare1;
#X msg 274 164 read -resize tr707/Snare1.wav snare1;
#X obj 90 236 table snare2;
#X msg 314 84 read -resize tr707/Snare2.wav snare2;
#X obj 208 15 loadbang;
#X obj 172 236 table tamb;
#X msg 64 84 read -resize tr707/Tamb.wav tamb;
#X obj 244 237 table ma;
#X msg 324 64 read -resize tr808/ma.wav ma;
#X msg 74 64 read -resize tr707/RimShot.wav rimshot;
#X obj 328 237 table rimshot;
#X obj 90 256 table midtom;
#X msg 334 44 read -resize tr707/MedTom.wav midtom;
#X connect 2 0 0 0;
#X connect 4 0 0 0;
#X connect 6 0 0 0;
#X connect 7 0 0 0;
#X connect 10 0 0 0;
#X connect 11 0 0 0;
#X connect 14 0 0 0;
#X connect 16 0 0 0;
#X connect 18 0 0 0;
#X connect 19 0 7 0;
#X connect 19 0 6 0;
#X connect 19 0 4 0;
#X connect 19 0 2 0;
#X connect 19 0 18 0;
#X connect 19 0 10 0;
#X connect 19 0 11 0;
#X connect 19 0 14 0;
#X connect 19 0 16 0;
#X connect 19 0 21 0;
#X connect 19 0 23 0;
#X connect 19 0 24 0;
#X connect 19 0 27 0;
#X connect 21 0 0 0;
#X connect 23 0 0 0;
#X connect 24 0 0 0;
#X connect 27 0 0 0;
#X restore 546 333 pd samples;
#X obj 202 41 unpack f f f f f f;
#N canvas 0 50 450 300 loadallpatterns 0;
#X obj 143 135 coll load-all;
#C restore;
#X msg 143 115 read HTB.txt;
#X msg 91 118 dump;
#X obj 143 157 list prepend;
#X obj 143 176 list trim;
#X obj 143 96 loadbang;
#X text 199 95 load all patterns;
#X msg 265 152 \; pd dsp 1;
#X connect 0 0 3 0;
#X connect 0 1 3 1;
#X connect 1 0 0 0;
#X connect 2 0 0 0;
#X connect 3 0 4 0;
#X connect 5 0 1 0;
#X connect 5 0 7 0;
#X restore 546 315 pd loadallpatterns;
#N canvas 0 50 450 300 num2name 0;
#X obj 37 22 inlet;
#X obj 37 41 sel 0 1 2 3 4 5 6 7 8;
#X msg 186 170 dirtyhouse_SA;
#X msg 27 123 technogrindinganalogue_AM;
#X msg 187 123 technoindustrial_AM;
#X msg 312 123 technohardcore_CCM;
#X msg 311 170 deeptechhouse_AM;
#X msg 186 211 breakfunkbreak_SA;
#X msg 27 211 breaksyntheticsubs_EH;
#X msg 27 170 deephouse_CCM;
#X msg 311 211 breakfunkydrummer_EH;
#X text 203 29 map the number comming from the space;
#X text 201 46 to a name as in this patch patterns are;
#X text 202 62 searched by name;
#X obj 27 237 symbol;
#X obj 30 262 outlet;
#X connect 0 0 1 0;
#X connect 1 0 3 0;
#X connect 1 1 4 0;
#X connect 1 2 5 0;
#X connect 1 3 9 0;
#X connect 1 4 2 0;
#X connect 1 5 6 0;
#X connect 1 6 8 0;
#X connect 1 7 7 0;
#X connect 1 8 10 0;
#X connect 2 0 14 0;
#X connect 3 0 14 0;
#X connect 4 0 14 0;
#X connect 5 0 14 0;
#X connect 6 0 14 0;
#X connect 7 0 14 0;
#X connect 8 0 14 0;
#X connect 9 0 14 0;
#X connect 10 0 14 0;
#X connect 14 0 15 0;
#X restore 183 103 pd num2name;
#N canvas 0 50 450 300 num2name 0;
#X obj 37 22 inlet;
#X obj 37 41 sel 0 1 2 3 4 5 6 7 8;
#X msg 186 170 dirtyhouse_SA;
#X msg 27 123 technogrindinganalogue_AM;
#X msg 187 123 technoindustrial_AM;
#X msg 312 123 technohardcore_CCM;
#X msg 311 170 deeptechhouse_AM;
#X msg 186 211 breakfunkbreak_SA;
#X msg 27 211 breaksyntheticsubs_EH;
#X msg 27 170 deephouse_CCM;
#X msg 311 211 breakfunkydrummer_EH;
#X text 203 29 map the number comming from the space;
#X text 201 46 to a name as in this patch patterns are;
#X text 202 62 searched by name;
#X obj 27 237 symbol;
#X obj 30 262 outlet;
#X connect 0 0 1 0;
#X connect 1 0 3 0;
#X connect 1 1 4 0;
#X connect 1 2 5 0;
#X connect 1 3 9 0;
#X connect 1 4 2 0;
#X connect 1 5 6 0;
#X connect 1 6 8 0;
#X connect 1 7 7 0;
#X connect 1 8 10 0;
#X connect 2 0 14 0;
#X connect 3 0 14 0;
#X connect 4 0 14 0;
#X connect 5 0 14 0;
#X connect 6 0 14 0;
#X connect 7 0 14 0;
#X connect 8 0 14 0;
#X connect 9 0 14 0;
#X connect 10 0 14 0;
#X connect 14 0 15 0;
#X restore 255 103 pd num2name;
#N canvas 0 50 450 300 num2name 0;
#X obj 37 22 inlet;
#X obj 37 41 sel 0 1 2 3 4 5 6 7 8;
#X msg 186 170 dirtyhouse_SA;
#X msg 27 123 technogrindinganalogue_AM;
#X msg 187 123 technoindustrial_AM;
#X msg 312 123 technohardcore_CCM;
#X msg 311 170 deeptechhouse_AM;
#X msg 186 211 breakfunkbreak_SA;
#X msg 27 211 breaksyntheticsubs_EH;
#X msg 27 170 deephouse_CCM;
#X msg 311 211 breakfunkydrummer_EH;
#X text 203 29 map the number comming from the space;
#X text 201 46 to a name as in this patch patterns are;
#X text 202 62 searched by name;
#X obj 27 237 symbol;
#X obj 30 262 outlet;
#X connect 0 0 1 0;
#X connect 1 0 3 0;
#X connect 1 1 4 0;
#X connect 1 2 5 0;
#X connect 1 3 9 0;
#X connect 1 4 2 0;
#X connect 1 5 6 0;
#X connect 1 6 8 0;
#X connect 1 7 7 0;
#X connect 1 8 10 0;
#X connect 2 0 14 0;
#X connect 3 0 14 0;
#X connect 4 0 14 0;
#X connect 5 0 14 0;
#X connect 6 0 14 0;
#X connect 7 0 14 0;
#X connect 8 0 14 0;
#X connect 9 0 14 0;
#X connect 10 0 14 0;
#X connect 14 0 15 0;
#X restore 327 103 pd num2name;
#N canvas 468 68 657 507 p1 0;
#X obj 245 129 coll load-all;
#C restore;
#X obj 245 167 list trim;
#X msg 245 110 dump;
#X obj 245 148 list split 1;
#X obj 245 205 sel x;
#X obj 332 173 symbol;
#X obj 245 186 symbol;
#X obj 273 350 f;
#X obj 299 350 + 1;
#X msg 288 325 0;
#X obj 245 228 f;
#X obj 281 205 route symbol float;
#X obj 245 248 + 1;
#X msg 245 287 16;
#X obj 245 330 until;
#X obj 245 308 t f b;
#X obj 300 389 +;
#X obj 245 267 t b f;
#X obj 300 408 coll load-all;
#C restore;
#X obj 273 370 t f f;
#X obj 273 428 list;
#X msg 338 83 clear;
#X obj 402 78 symbol;
#X obj 291 61 t b b a b a;
#X obj 338 102 coll sel1;
#C restore;
#X obj 273 447 coll sel1;
#C restore;
#X obj 291 42 inlet;
#X obj 402 97 s loaded-pattern1;
#X connect 0 0 3 0;
#X connect 0 1 11 0;
#X connect 1 0 6 0;
#X connect 2 0 0 0;
#X connect 3 0 1 0;
#X connect 4 0 10 0;
#X connect 5 0 4 1;
#X connect 6 0 4 0;
#X connect 7 0 8 0;
#X connect 7 0 19 0;
#X connect 8 0 7 1;
#X connect 9 0 7 1;
#X connect 10 0 12 0;
#X connect 11 1 10 1;
#X connect 12 0 17 0;
#X connect 13 0 15 0;
#X connect 14 0 7 0;
#X connect 15 0 14 0;
#X connect 15 1 9 0;
#X connect 16 0 18 0;
#X connect 17 0 13 0;
#X connect 17 1 16 1;
#X connect 18 0 20 1;
#X connect 19 0 20 0;
#X connect 19 1 16 0;
#X connect 20 0 25 0;
#X connect 21 0 24 0;
#X connect 22 0 27 0;
#X connect 23 1 2 0;
#X connect 23 2 5 0;
#X connect 23 3 21 0;
#X connect 23 4 22 0;
#X connect 26 0 23 0;
#X restore 183 122 pd p1;
#N canvas 468 68 657 507 p2 0;
#X obj 245 129 coll load-all;
#C restore;
#X obj 245 167 list trim;
#X msg 245 110 dump;
#X obj 245 148 list split 1;
#X obj 245 205 sel x;
#X obj 332 173 symbol;
#X obj 245 186 symbol;
#X obj 273 350 f;
#X obj 299 350 + 1;
#X msg 288 325 0;
#X obj 245 228 f;
#X obj 281 205 route symbol float;
#X obj 245 248 + 1;
#X msg 245 287 16;
#X obj 245 330 until;
#X obj 245 308 t f b;
#X obj 300 389 +;
#X obj 245 267 t b f;
#X obj 300 408 coll load-all;
#C restore;
#X obj 273 370 t f f;
#X obj 273 428 list;
#X msg 338 83 clear;
#X obj 402 78 symbol;
#X obj 291 61 t b b a b a;
#X obj 291 42 inlet;
#X obj 338 102 coll sel2;
#C restore;
#X obj 273 447 coll sel2;
#C restore;
#X obj 402 97 s loaded-pattern2;
#X connect 0 0 3 0;
#X connect 0 1 11 0;
#X connect 1 0 6 0;
#X connect 2 0 0 0;
#X connect 3 0 1 0;
#X connect 4 0 10 0;
#X connect 5 0 4 1;
#X connect 6 0 4 0;
#X connect 7 0 8 0;
#X connect 7 0 19 0;
#X connect 8 0 7 1;
#X connect 9 0 7 1;
#X connect 10 0 12 0;
#X connect 11 1 10 1;
#X connect 12 0 17 0;
#X connect 13 0 15 0;
#X connect 14 0 7 0;
#X connect 15 0 14 0;
#X connect 15 1 9 0;
#X connect 16 0 18 0;
#X connect 17 0 13 0;
#X connect 17 1 16 1;
#X connect 18 0 20 1;
#X connect 19 0 20 0;
#X connect 19 1 16 0;
#X connect 20 0 26 0;
#X connect 21 0 25 0;
#X connect 22 0 27 0;
#X connect 23 1 2 0;
#X connect 23 2 5 0;
#X connect 23 3 21 0;
#X connect 23 4 22 0;
#X connect 24 0 23 0;
#X restore 255 122 pd p2;
#N canvas 468 68 657 507 p3 0;
#X obj 245 129 coll load-all;
#C restore;
#X obj 245 167 list trim;
#X msg 245 110 dump;
#X obj 245 148 list split 1;
#X obj 245 205 sel x;
#X obj 332 173 symbol;
#X obj 245 186 symbol;
#X obj 273 350 f;
#X obj 299 350 + 1;
#X msg 288 325 0;
#X obj 245 228 f;
#X obj 281 205 route symbol float;
#X obj 245 248 + 1;
#X msg 245 287 16;
#X obj 245 330 until;
#X obj 245 308 t f b;
#X obj 300 389 +;
#X obj 245 267 t b f;
#X obj 300 408 coll load-all;
#C restore;
#X obj 273 370 t f f;
#X obj 273 428 list;
#X msg 338 83 clear;
#X obj 402 78 symbol;
#X obj 291 61 t b b a b a;
#X obj 291 42 inlet;
#X obj 402 97 s loaded-pattern3;
#X obj 338 102 coll sel3;
#C restore;
#X obj 273 447 coll sel3;
#C restore;
#X connect 0 0 3 0;
#X connect 0 1 11 0;
#X connect 1 0 6 0;
#X connect 2 0 0 0;
#X connect 3 0 1 0;
#X connect 4 0 10 0;
#X connect 5 0 4 1;
#X connect 6 0 4 0;
#X connect 7 0 8 0;
#X connect 7 0 19 0;
#X connect 8 0 7 1;
#X connect 9 0 7 1;
#X connect 10 0 12 0;
#X connect 11 1 10 1;
#X connect 12 0 17 0;
#X connect 13 0 15 0;
#X connect 14 0 7 0;
#X connect 15 0 14 0;
#X connect 15 1 9 0;
#X connect 16 0 18 0;
#X connect 17 0 13 0;
#X connect 17 1 16 1;
#X connect 18 0 20 1;
#X connect 19 0 20 0;
#X connect 19 1 16 0;
#X connect 20 0 27 0;
#X connect 21 0 26 0;
#X connect 22 0 25 0;
#X connect 23 1 2 0;
#X connect 23 2 5 0;
#X connect 23 3 21 0;
#X connect 23 4 22 0;
#X connect 24 0 23 0;
#X restore 327 122 pd p3;
#N canvas 0 50 780 734 interpolate 0;
#X msg 58 53 16;
#X obj 58 91 until;
#X obj 58 117 f;
#X obj 83 117 + 1;
#X obj 58 72 t f b;
#X msg 100 89 0;
#X obj 218 174 coll sel1;
#C restore;
#X obj 279 175 coll sel2;
#C restore;
#X obj 348 175 coll sel3;
#C restore;
#X obj 242 153 t f f f;
#X obj 218 221 drip;
#X obj 279 224 drip;
#X obj 348 223 drip;
#X obj 218 241 pack;
#X obj 279 243 pack;
#X obj 348 245 pack;
#X obj 219 299 list append;
#X obj 294 300 list;
#X obj 176 310 list;
#X msg 169 206 bang;
#X obj 140 436 coll addstep;
#C restore;
#X obj 176 361 list split 2;
#X obj 258 361 list;
#X msg 176 381 merge \$1 \$2;
#X msg 350 294 clear;
#X obj 161 240 t b b b;
#X obj 218 197 t a a;
#X obj 279 197 t a a;
#X obj 348 197 t a a;
#X text 464 194 process density;
#X obj 435 214 list length;
#X obj 505 214 list length;
#X obj 575 214 list length;
#X obj 435 260 *;
#X obj 505 262 *;
#X obj 575 263 *;
#X obj 450 241 r w1;
#X obj 520 241 r w2;
#X obj 590 238 r w3;
#X obj 249 221 r w1;
#X obj 310 225 r w2;
#X obj 379 223 r w3;
#X obj 461 298 +;
#X obj 435 319 +;
#X obj 435 364 int;
#X obj 460 365 cnv 15 15 15 empty empty empty 20 12 0 14 -258113 -66577
0;
#X text 477 364 how should we round?;
#X obj 435 338 + 0.5;
#X text 464 391 this is the density that makes the cut;
#X obj 435 391 f;
#X obj 350 314 t b a;
#X msg 75 368 dump;
#X obj 140 458 sum;
#X obj 218 477 list;
#X msg 209 458 bang;
#X obj 109 497 list;
#X obj 140 477 list prepend;
#X obj 371 487 list;
#X msg 359 463 bang;
#X obj 290 486 list prepend;
#X obj 109 516 sort -1;
#X obj 109 400 t b b a b b;
#X obj 269 505 list;
#X obj 435 410 s stepd;
#X obj 205 518 r stepd;
#X obj 148 537 list split;
#X obj 248 613 packel;
#X obj 248 554 drip;
#X obj 248 594 list;
#X obj 248 574 t b f;
#X obj 281 594 + 1;
#N canvas 0 50 450 300 pack 0;
#X obj 141 41 inlet;
#X obj 102 61 inlet;
#X obj 101 104 t b b b;
#X obj 171 93 list;
#X obj 238 95 list;
#X obj 118 156 list;
#X obj 140 199 outlet;
#X connect 0 0 3 0;
#X connect 1 0 2 0;
#X connect 2 1 3 1;
#X connect 2 2 5 0;
#X connect 3 0 4 0;
#X connect 3 0 5 1;
#X connect 4 0 3 1;
#X connect 5 0 6 0;
#X restore 58 630 pd pack;
#X msg 58 517 bang;
#X obj 166 689 outlet;
#X obj 58 34 inlet;
#X text 232 24 This patch interpolates by density.;
#X obj 58 136 t b b b f f;
#X obj 154 127 s step-index;
#X obj 163 654 list prepend;
#X obj 257 654 r step-index;
#X connect 0 0 4 0;
#X connect 1 0 2 0;
#X connect 2 0 3 0;
#X connect 2 0 76 0;
#X connect 3 0 2 1;
#X connect 4 0 1 0;
#X connect 4 1 5 0;
#X connect 5 0 2 1;
#X connect 6 0 26 0;
#X connect 7 0 27 0;
#X connect 8 0 28 0;
#X connect 9 0 6 0;
#X connect 9 1 7 0;
#X connect 9 2 8 0;
#X connect 10 0 13 0;
#X connect 11 0 14 0;
#X connect 12 0 15 0;
#X connect 13 0 16 0;
#X connect 14 0 16 0;
#X connect 15 0 16 0;
#X connect 16 0 17 0;
#X connect 16 0 18 1;
#X connect 17 0 16 1;
#X connect 18 0 21 0;
#X connect 19 0 25 0;
#X connect 20 0 52 0;
#X connect 20 1 59 0;
#X connect 21 0 23 0;
#X connect 21 1 22 0;
#X connect 22 0 21 0;
#X connect 23 0 20 0;
#X connect 24 0 50 0;
#X connect 25 0 18 0;
#X connect 25 1 16 1;
#X connect 25 1 17 1;
#X connect 25 2 24 0;
#X connect 26 0 10 0;
#X connect 26 1 30 0;
#X connect 27 0 11 0;
#X connect 27 1 31 0;
#X connect 28 0 12 0;
#X connect 28 1 32 0;
#X connect 30 0 33 0;
#X connect 31 0 34 0;
#X connect 32 0 35 0;
#X connect 33 0 43 0;
#X connect 34 0 42 0;
#X connect 35 0 42 1;
#X connect 36 0 33 1;
#X connect 37 0 34 1;
#X connect 38 0 35 1;
#X connect 39 0 13 1;
#X connect 40 0 14 1;
#X connect 41 0 15 1;
#X connect 42 0 43 1;
#X connect 43 0 47 0;
#X connect 44 0 49 0;
#X connect 47 0 44 0;
#X connect 49 0 63 0;
#X connect 50 0 22 1;
#X connect 50 1 20 0;
#X connect 51 0 61 0;
#X connect 52 0 56 0;
#X connect 53 0 56 1;
#X connect 54 0 56 1;
#X connect 55 0 60 0;
#X connect 56 0 53 0;
#X connect 56 0 55 1;
#X connect 57 0 59 1;
#X connect 58 0 59 1;
#X connect 59 0 57 0;
#X connect 59 0 62 1;
#X connect 60 1 65 0;
#X connect 61 0 55 0;
#X connect 61 1 62 0;
#X connect 61 2 20 0;
#X connect 61 3 54 0;
#X connect 61 4 58 0;
#X connect 62 0 68 1;
#X connect 64 0 65 1;
#X connect 65 0 67 0;
#X connect 66 0 71 1;
#X connect 67 0 69 0;
#X connect 68 0 66 0;
#X connect 69 0 68 0;
#X connect 69 1 70 0;
#X connect 70 0 66 1;
#X connect 71 0 78 0;
#X connect 72 0 71 0;
#X connect 74 0 0 0;
#X connect 76 0 72 0;
#X connect 76 1 51 0;
#X connect 76 2 19 0;
#X connect 76 3 9 0;
#X connect 76 4 77 0;
#X connect 78 0 73 0;
#X connect 79 0 78 1;
#X restore 210 260 pd interpolate by density;
#X msg 183 223 bang;
#X text 222 223 Bang to interpolate;
#X obj 210 279 coll interpolated;
#C restore;
#X msg 43 76 start \$1;
#X obj 43 59 tgl 15 0 empty start-button empty 17 7 0 10 -262144 -1
-1 0 1;
#X obj 183 145 r \$0-tick;
#X obj 243 145 r w1;
#X obj 183 201 change;
#X obj 183 182 f, f 5;
#X text 273 166 if this weight changes then recompute output pattern
;
#X text 366 260 <- here we have the interpolation algorithm STEVO-D
;
#X obj 104 60 r gui-BPM;
#X msg 104 79 bpm \$1;
#X obj 400 104 cnv 15 15 15 empty empty empty 20 12 0 14 -258113 -66577
0;
#X text 238 21 we receive patt1 weight1 patt2 weihgt2 patt3 weihgt3
;
#X text 418 93 edit this object 'num2name' in order to get the names
from a list. here we need an object that receives a number and outputs
a name from the list of patterns.;
#X obj 273 145 r w2;
#X obj 243 165 *;
#X msg 173 263 dump;
#X obj 210 319 list prepend;
#N canvas 685 50 460 449 list2step 0;
#X obj 95 143 list split 1;
#X obj 131 162 list;
#X obj 95 162 t b f;
#X obj 68 124 t b a;
#X obj 34 67 list split 1;
#X obj 15 2 inlet;
#X msg 68 105 0;
#X obj 15 34 t b a b;
#X msg 151 269 1 0;
#X msg 195 268 1 1;
#X obj 128 400 tabwrite step;
#X msg 147 51 \; step const 0;
#X obj 68 87 route bang;
#X msg 177 228 1 3;
#X msg 230 262 1 2;
#X obj 122 182 sel 0 35 36 37 38 39 40;
#X obj 257 207 sel 42 44 46;
#X msg 275 240 1 4;
#X msg 302 240 1 5;
#X obj 339 237 sel 43 41;
#X msg 327 273 1 6;
#X obj 391 261 sel 45 47;
#X msg 354 296 1 7;
#X obj 388 327 sel 70 69;
#X text 240 146 k s cp rs ch oh lot mit ma;
#X text 240 161 0 1 2 3 4 5 6 7 8;
#X msg 351 362 1 8;
#X obj 16 303 tabdump step;
#X obj 16 355 list prepend;
#X obj 16 378 s draw-step;
#X obj 128 419 table step 9;
#X connect 0 0 2 0;
#X connect 0 1 1 1;
#X connect 1 0 0 0;
#X connect 2 0 1 0;
#X connect 2 1 15 0;
#X connect 3 1 0 0;
#X connect 4 0 28 1;
#X connect 4 1 12 0;
#X connect 5 0 7 0;
#X connect 6 0 3 0;
#X connect 7 0 27 0;
#X connect 7 1 4 0;
#X connect 7 2 11 0;
#X connect 8 0 10 0;
#X connect 9 0 10 0;
#X connect 12 0 6 0;
#X connect 12 1 3 0;
#X connect 13 0 10 0;
#X connect 14 0 10 0;
#X connect 15 1 8 0;
#X connect 15 2 8 0;
#X connect 15 3 13 0;
#X connect 15 4 9 0;
#X connect 15 5 14 0;
#X connect 15 6 9 0;
#X connect 15 7 16 0;
#X connect 16 0 17 0;
#X connect 16 1 18 0;
#X connect 16 2 18 0;
#X connect 16 3 19 0;
#X connect 17 0 10 0;
#X connect 18 0 10 0;
#X connect 19 0 20 0;
#X connect 19 1 20 0;
#X connect 19 2 21 0;
#X connect 20 0 10 0;
#X connect 21 0 22 0;
#X connect 21 1 22 0;
#X connect 21 2 23 0;
#X connect 22 0 10 0;
#X connect 23 0 26 0;
#X connect 23 1 26 0;
#X connect 26 0 10 0;
#X connect 27 0 28 0;
#X connect 28 0 29 0;
#X restore 210 338 pd list2step;
#X obj 183 241 t b b;
#N canvas 0 22 450 300 extend 0;
#X obj 20 15 inlet;
#X obj 60 16 inlet;
#X obj 126 17 inlet;
#X obj 200 136 +;
#X obj 199 156 +;
#X obj 46 197 /;
#X obj 89 197 /;
#X obj 135 200 /;
#X obj 135 246 s w3;
#X obj 89 245 s w2;
#X obj 46 247 s w1;
#X obj 20 36 sqrt;
#X obj 60 36 sqrt;
#X obj 126 37 sqrt;
#X text 253 132 sqrt and normalize;
#X connect 0 0 11 0;
#X connect 1 0 12 0;
#X connect 2 0 13 0;
#X connect 3 0 4 0;
#X connect 4 0 5 1;
#X connect 4 0 6 1;
#X connect 4 0 7 1;
#X connect 5 0 10 0;
#X connect 6 0 9 0;
#X connect 7 0 8 0;
#X connect 11 0 3 0;
#X connect 11 0 5 0;
#X connect 12 0 3 1;
#X connect 12 0 6 0;
#X connect 13 0 4 1;
#X connect 13 0 7 0;
#X restore 221 65 pd extend weights;
#X msg 369 458 bang;
#X text 367 441 load;
#N canvas 0 23 450 300 iterate 0;
#X obj 146 106 f;
#X obj 173 109 + 1;
#X msg 179 88 0;
#X floatatom 138 173 5 0 0 0 - - -, f 5;
#X msg 141 85 bang;
#X obj 175 184 f;
#X obj 199 184 + 1;
#X msg 207 88 0, f 4;
#X obj 148 142 t f f;
#X obj 175 160 sel 0;
#X floatatom 175 203 5 0 0 0 - - -, f 5;
#X obj 147 124 % 9;
#X obj 141 66 inlet;
#X obj 211 53 inlet;
#X obj 154 247 pack f f;
#X obj 156 274 outlet;
#X connect 0 0 1 0;
#X connect 0 0 11 0;
#X connect 1 0 0 1;
#X connect 2 0 0 1;
#X connect 4 0 0 0;
#X connect 5 0 6 0;
#X connect 5 0 10 0;
#X connect 5 0 14 1;
#X connect 6 0 5 1;
#X connect 7 0 5 1;
#X connect 8 0 3 0;
#X connect 8 0 14 0;
#X connect 8 1 9 0;
#X connect 9 0 5 0;
#X connect 11 0 8 0;
#X connect 12 0 4 0;
#X connect 13 0 2 0;
#X connect 13 0 7 0;
#X connect 14 0 15 0;
#X restore 456 477 pd iterate;
#N canvas 0 23 450 300 set 0;
#N canvas 0 50 450 300 num2name 0;
#X obj 37 22 inlet;
#X obj 37 41 sel 0 1 2 3 4 5 6 7 8;
#X msg 186 170 dirtyhouse_SA;
#X msg 27 123 technogrindinganalogue_AM;
#X msg 187 123 technoindustrial_AM;
#X msg 312 123 technohardcore_CCM;
#X msg 311 170 deeptechhouse_AM;
#X msg 186 211 breakfunkbreak_SA;
#X msg 27 211 breaksyntheticsubs_EH;
#X msg 27 170 deephouse_CCM;
#X msg 311 211 breakfunkydrummer_EH;
#X text 203 29 map the number comming from the space;
#X text 201 46 to a name as in this patch patterns are;
#X text 202 62 searched by name;
#X obj 27 237 symbol;
#X obj 30 262 outlet;
#X connect 0 0 1 0;
#X connect 1 0 3 0;
#X connect 1 1 4 0;
#X connect 1 2 5 0;
#X connect 1 3 9 0;
#X connect 1 4 2 0;
#X connect 1 5 6 0;
#X connect 1 6 8 0;
#X connect 1 7 7 0;
#X connect 1 8 10 0;
#X connect 2 0 14 0;
#X connect 3 0 14 0;
#X connect 4 0 14 0;
#X connect 5 0 14 0;
#X connect 6 0 14 0;
#X connect 7 0 14 0;
#X connect 8 0 14 0;
#X connect 9 0 14 0;
#X connect 10 0 14 0;
#X connect 14 0 15 0;
#X restore 82 197 pd num2name;
#N canvas 0 50 450 300 num2name 0;
#X obj 37 22 inlet;
#X obj 37 41 sel 0 1 2 3 4 5 6 7 8;
#X msg 186 170 dirtyhouse_SA;
#X msg 27 123 technogrindinganalogue_AM;
#X msg 187 123 technoindustrial_AM;
#X msg 312 123 technohardcore_CCM;
#X msg 311 170 deeptechhouse_AM;
#X msg 186 211 breakfunkbreak_SA;
#X msg 27 211 breaksyntheticsubs_EH;
#X msg 27 170 deephouse_CCM;
#X msg 311 211 breakfunkydrummer_EH;
#X text 203 29 map the number comming from the space;
#X text 201 46 to a name as in this patch patterns are;
#X text 202 62 searched by name;
#X obj 27 237 symbol;
#X obj 30 262 outlet;
#X connect 0 0 1 0;
#X connect 1 0 3 0;
#X connect 1 1 4 0;
#X connect 1 2 5 0;
#X connect 1 3 9 0;
#X connect 1 4 2 0;
#X connect 1 5 6 0;
#X connect 1 6 8 0;
#X connect 1 7 7 0;
#X connect 1 8 10 0;
#X connect 2 0 14 0;
#X connect 3 0 14 0;
#X connect 4 0 14 0;
#X connect 5 0 14 0;
#X connect 6 0 14 0;
#X connect 7 0 14 0;
#X connect 8 0 14 0;
#X connect 9 0 14 0;
#X connect 10 0 14 0;
#X connect 14 0 15 0;
#X restore 220 197 pd num2name;
#N canvas 468 68 657 507 p1 0;
#X obj 245 129 coll load-all;
#C restore;
#X obj 245 167 list trim;
#X msg 245 110 dump;
#X obj 245 148 list split 1;
#X obj 245 205 sel x;
#X obj 332 173 symbol;
#X obj 245 186 symbol;
#X obj 273 350 f;
#X obj 299 350 + 1;
#X msg 288 325 0;
#X obj 245 228 f;
#X obj 281 205 route symbol float;
#X obj 245 248 + 1;
#X msg 245 287 16;
#X obj 245 330 until;
#X obj 245 308 t f b;
#X obj 300 389 +;
#X obj 245 267 t b f;
#X obj 300 408 coll load-all;
#C restore;
#X obj 273 370 t f f;
#X obj 273 428 list;
#X msg 338 83 clear;
#X obj 402 78 symbol;
#X obj 291 61 t b b a b a;
#X obj 338 102 coll sel1;
#C restore;
#X obj 273 447 coll sel1;
#C restore;
#X obj 291 42 inlet;
#X obj 402 97 s loaded-pattern1;
#X connect 0 0 3 0;
#X connect 0 1 11 0;
#X connect 1 0 6 0;
#X connect 2 0 0 0;
#X connect 3 0 1 0;
#X connect 4 0 10 0;
#X connect 5 0 4 1;
#X connect 6 0 4 0;
#X connect 7 0 8 0;
#X connect 7 0 19 0;
#X connect 8 0 7 1;
#X connect 9 0 7 1;
#X connect 10 0 12 0;
#X connect 11 1 10 1;
#X connect 12 0 17 0;
#X connect 13 0 15 0;
#X connect 14 0 7 0;
#X connect 15 0 14 0;
#X connect 15 1 9 0;
#X connect 16 0 18 0;
#X connect 17 0 13 0;
#X connect 17 1 16 1;
#X connect 18 0 20 1;
#X connect 19 0 20 0;
#X connect 19 1 16 0;
#X connect 20 0 25 0;
#X connect 21 0 24 0;
#X connect 22 0 27 0;
#X connect 23 1 2 0;
#X connect 23 2 5 0;
#X connect 23 3 21 0;
#X connect 23 4 22 0;
#X connect 26 0 23 0;
#X restore 82 216 pd p1;
#N canvas 468 68 657 507 p2 0;
#X obj 245 129 coll load-all;
#C restore;
#X obj 245 167 list trim;
#X msg 245 110 dump;
#X obj 245 148 list split 1;
#X obj 245 205 sel x;
#X obj 332 173 symbol;
#X obj 245 186 symbol;
#X obj 273 350 f;
#X obj 299 350 + 1;
#X msg 288 325 0;
#X obj 245 228 f;
#X obj 281 205 route symbol float;
#X obj 245 248 + 1;
#X msg 245 287 16;
#X obj 245 330 until;
#X obj 245 308 t f b;
#X obj 300 389 +;
#X obj 245 267 t b f;
#X obj 300 408 coll load-all;
#C restore;
#X obj 273 370 t f f;
#X obj 273 428 list;
#X msg 338 83 clear;
#X obj 402 78 symbol;
#X obj 291 61 t b b a b a;
#X obj 291 42 inlet;
#X obj 338 102 coll sel2;
#C restore;
#X obj 273 447 coll sel2;
#C restore;
#X obj 402 97 s loaded-pattern2;
#X connect 0 0 3 0;
#X connect 0 1 11 0;
#X connect 1 0 6 0;
#X connect 2 0 0 0;
#X connect 3 0 1 0;
#X connect 4 0 10 0;
#X connect 5 0 4 1;
#X connect 6 0 4 0;
#X connect 7 0 8 0;
#X connect 7 0 19 0;
#X connect 8 0 7 1;
#X connect 9 0 7 1;
#X connect 10 0 12 0;
#X connect 11 1 10 1;
#X connect 12 0 17 0;
#X connect 13 0 15 0;
#X connect 14 0 7 0;
#X connect 15 0 14 0;
#X connect 15 1 9 0;
#X connect 16 0 18 0;
#X connect 17 0 13 0;
#X connect 17 1 16 1;
#X connect 18 0 20 1;
#X connect 19 0 20 0;
#X connect 19 1 16 0;
#X connect 20 0 26 0;
#X connect 21 0 25 0;
#X connect 22 0 27 0;
#X connect 23 1 2 0;
#X connect 23 2 5 0;
#X connect 23 3 21 0;
#X connect 23 4 22 0;
#X connect 24 0 23 0;
#X restore 220 216 pd p2;
#X obj 82 180 hradio 15 1 0 9 empty empty empty 0 -8 0 10 -262144 -1
-1 8;
#X obj 220 180 hradio 15 1 0 9 empty empty empty 0 -8 0 10 -262144
-1 -1 8;
#X obj 82 118 f;
#X obj 187 147 f;
#X msg 97 100 0;
#X msg 198 113 1;
#X obj 82 74 t b b;
#X obj 82 55 inlet;
#X obj 164 60 inlet;
#X obj 163 87 unpack f f;
#X connect 0 0 2 0;
#X connect 1 0 3 0;
#X connect 4 0 0 0;
#X connect 5 0 1 0;
#X connect 6 0 4 0;
#X connect 7 0 5 0;
#X connect 8 0 6 1;
#X connect 9 0 7 1;
#X connect 10 0 6 0;
#X connect 10 1 7 0;
#X connect 11 0 10 0;
#X connect 12 0 13 0;
#X connect 13 0 6 1;
#X connect 13 1 7 1;
#X restore 368 515 pd set patterns;
#X msg 456 458 bang;
#X obj 334 581 list;
#N canvas 0 23 450 300 grabadora 0;
#X obj 85 75 soundfiler;
#X obj 152 97 tabwrite~ grabacion;
#X obj 84 30 inlet;
#X msg 85 57 write -wave interpolaciones/triada-\$1-\$2.wav grabacion
;
#X obj 152 76 r~ graba;
#X msg 322 78 bang;
#X obj 312 30 inlet;
#X obj 73 128 table grabacion 1.2789e+06;
#X connect 2 0 3 0;
#X connect 3 0 0 0;
#X connect 4 0 1 0;
#X connect 5 0 1 0;
#X connect 6 0 5 0;
#X restore 334 599 pd grabadora;
#N canvas 0 23 450 300 play 0;
#X obj 173 271 s w1;
#X obj 143 271 s w2;
#X obj 203 271 s w3;
#X msg 203 253 0, f 2;
#X obj 146 183 hsl 128 15 0 1 0 0 empty empty empty -2 -8 0 10 -262144
-1 -1 12700 1;
#X obj 173 253 abs;
#X obj 173 235 - 1;
#X obj 65 271 s mouseclick;
#X msg 65 124 bang;
#X msg 161 124 bang;
#X text 159 108 A \, B;
#X text 63 109 A \, AB;
#X text 111 107 B \, AB;
#N canvas 0 23 450 300 b 0;
#X msg 194 162 0.5;
#X msg 222 162 1;
#X msg 78 179 1;
#X msg 106 179 0;
#X msg 166 162 0.01;
#X msg 171 68 bang;
#X text 169 53 B \, AB;
#X obj 190 114 delay 4000;
#X obj 171 86 t b b b b;
#X obj 162 18 inlet;
#X obj 171 217 outlet;
#X obj 71 215 outlet;
#X obj 167 136 delay 4125;
#X connect 0 0 10 0;
#X connect 1 0 10 0;
#X connect 2 0 11 0;
#X connect 3 0 11 0;
#X connect 5 0 8 0;
#X connect 7 0 0 0;
#X connect 7 0 12 0;
#X connect 8 1 7 0;
#X connect 8 2 2 0;
#X connect 8 3 1 0;
#X connect 9 0 5 0;
#X connect 12 0 3 0;
#X restore 113 142 pd b ab;
#X msg 113 124 bang;
#N canvas 0 23 450 300 a 0;
#X msg 194 162 0.5;
#X msg 78 179 1;
#X msg 106 179 0;
#X msg 171 68 bang;
#X text 169 53 B \, AB;
#X obj 190 114 delay 4000;
#X obj 171 86 t b b b b;
#X obj 162 18 inlet;
#X obj 171 217 outlet;
#X obj 71 215 outlet;
#X obj 167 136 delay 4125;
#X msg 222 162 0.01;
#X connect 0 0 8 0;
#X connect 1 0 9 0;
#X connect 2 0 9 0;
#X connect 3 0 6 0;
#X connect 5 0 0 0;
#X connect 5 0 10 0;
#X connect 6 1 5 0;
#X connect 6 2 1 0;
#X connect 6 3 11 0;
#X connect 7 0 3 0;
#X connect 10 0 2 0;
#X connect 11 0 8 0;
#X restore 65 142 pd a ab;
#N canvas 0 23 450 300 a 0;
#X msg 78 179 1;
#X msg 106 179 0;
#X msg 171 68 bang;
#X text 169 53 B \, AB;
#X obj 190 114 delay 4000;
#X obj 171 86 t b b b b;
#X obj 162 18 inlet;
#X obj 171 217 outlet;
#X obj 71 215 outlet;
#X obj 167 136 delay 4125;
#X msg 222 162 0.01;
#X msg 194 162 1;
#X connect 0 0 8 0;
#X connect 1 0 8 0;
#X connect 2 0 5 0;
#X connect 4 0 11 0;
#X connect 4 0 9 0;
#X connect 5 1 4 0;
#X connect 5 2 0 0;
#X connect 5 3 10 0;
#X connect 6 0 2 0;
#X connect 9 0 1 0;
#X connect 10 0 7 0;
#X connect 11 0 7 0;
#X restore 161 142 pd a ab;
#X obj 143 200 t f f b;
#X msg 65 39 bang;
#X obj 82 59 delay 10000;
#X obj 122 79 delay 10000;
#X obj 220 117 bng 15 250 50 0 empty empty empty 17 7 0 10 -262144
-1 -1;
#X obj 213 92 delay 8500;
#X obj 323 220 outlet;
#X obj 73 11 inlet;
#X connect 3 0 2 0;
#X connect 4 0 17 0;
#X connect 5 0 0 0;
#X connect 6 0 5 0;
#X connect 8 0 15 0;
#X connect 9 0 16 0;
#X connect 13 0 7 0;
#X connect 13 1 4 0;
#X connect 14 0 13 0;
#X connect 15 0 7 0;
#X connect 15 1 4 0;
#X connect 16 0 7 0;
#X connect 16 1 4 0;
#X connect 17 0 1 0;
#X connect 17 1 6 0;
#X connect 17 2 3 0;
#X connect 18 0 19 0;
#X connect 18 0 8 0;
#X connect 19 0 14 0;
#X connect 19 0 20 0;
#X connect 20 0 9 0;
#X connect 20 0 22 0;
#X connect 22 0 21 0;
#X connect 22 0 23 0;
#X connect 24 0 18 0;
#X restore 145 488 pd play all three pairs;
#X msg 518 455 bang;
#X obj 146 507 t b b;
#X msg 137 369 bang;
#N canvas 8 23 442 300 check 1;
#X obj 131 22 inlet;
#X obj 130 40 unpack f f;
#X obj 127 81 == 8;
#X obj 184 84 == 8;
#X obj 135 127 *;
#X obj 135 146 - 1;
#X obj 134 165 abs;
#X obj 134 184 outlet;
#X connect 0 0 1 0;
#X connect 1 0 2 0;
#X connect 1 1 3 0;
#X connect 2 0 4 0;
#X connect 3 0 4 1;
#X connect 4 0 5 0;
#X connect 5 0 6 0;
#X connect 6 0 7 0;
#X restore 494 591 pd check end;
#X obj 175 638 spigot 1;
#X obj 455 495 t a a a;
#X obj 74 630 delay 100;
#X obj 138 387 t b b b b;
#X connect 2 0 4 0;
#X connect 4 0 6 0;
#X connect 4 1 35 0;
#X connect 4 2 7 0;
#X connect 4 3 35 1;
#X connect 4 4 8 0;
#X connect 4 5 35 2;
#X connect 6 0 9 0;
#X connect 7 0 10 0;
#X connect 8 0 11 0;
#X connect 12 0 15 0;
#X connect 13 0 34 0;
#X connect 15 0 32 0;
#X connect 15 1 32 1;
#X connect 16 0 0 0;
#X connect 17 0 16 0;
#X connect 18 0 21 0;
#X connect 19 0 30 0;
#X connect 20 0 13 0;
#X connect 21 0 20 0;
#X connect 24 0 25 0;
#X connect 25 0 0 0;
#X connect 29 0 30 1;
#X connect 30 0 21 1;
#X connect 31 0 15 0;
#X connect 32 0 33 0;
#X connect 34 0 31 0;
#X connect 34 1 12 0;
#X connect 36 0 39 0;
#X connect 38 0 49 0;
#X connect 40 0 38 0;
#X connect 41 0 42 0;
#X connect 43 0 45 0;
#X connect 44 0 38 1;
#X connect 45 0 48 0;
#X connect 45 1 41 0;
#X connect 46 0 51 0;
#X connect 47 0 48 1;
#X connect 48 0 50 0;
#X connect 49 0 39 1;
#X connect 49 1 41 1;
#X connect 49 2 47 0;
#X connect 50 0 51 0;
#X connect 51 0 43 0;
#X connect 51 1 42 1;
#X connect 51 2 36 0;
#X connect 51 3 40 0;
#X restore 442 245 pd newinterpolator;
#X text 57 52 SETUP THE SPACE;
#X text 434 180 RECEIVE COORDINATES AND PLAY RHYTHMS;
#N canvas 0 50 450 300 loadallpatterns 0;
#X obj 143 135 coll load-all;
#C restore;
#X msg 91 118 dump;
#X obj 143 157 list prepend;
#X obj 143 176 list trim;
#X text 199 95 load all patterns;
#X msg 265 152 \; pd dsp 1;
#X msg 143 115 read data/HTB.txt;
#X obj 143 96 inlet;
#X connect 0 0 2 0;
#X connect 0 1 2 1;
#X connect 1 0 0 0;
#X connect 2 0 3 0;
#X connect 6 0 0 0;
#X connect 7 0 6 0;
#X connect 7 0 5 0;
#X restore 181 100 pd loadallpatterns;
#X obj 556 246 cnv 15 15 15 empty empty empty 20 12 0 14 -258113 -66577
0;
#X text 573 246 <- needs editing.;
#N canvas 0 22 450 300 receivemousecoords 0;
#X obj 125 120 pack f f;
#X obj 125 101 / 500;
#X obj 227 101 / 500;
#X obj 125 82 r space-outlet-x;
#X obj 227 82 r space-outlet-y;
#X obj 125 139 outlet;
#X connect 0 0 5 0;
#X connect 1 0 0 0;
#X connect 2 0 0 1;
#X connect 3 0 1 0;
#X connect 4 0 2 0;
#X restore 559 207 pd receivemousecoords;
#N canvas 797 53 398 246 draw 0;
#N canvas 0 22 450 300 receivemousecoords 0;
#X obj 125 120 pack f f;
#X obj 125 82 r space-outlet-x;
#X obj 227 82 r space-outlet-y;
#X obj 125 139 outlet;
#X obj 228 121 - 5;
#X obj 97 104 - 5;
#X connect 0 0 3 0;
#X connect 1 0 5 0;
#X connect 2 0 4 0;
#X connect 4 0 0 1;
#X connect 5 0 0 0;
#X restore 60 14 pd receivemousecoords;
#X msg 184 137 rect black 200 200 10 10;
#X obj 129 96 + 1;
#X obj 60 117 list prepend;
#X msg 60 137 move \$1 \$2 \$3 10 10;
#X obj 129 77 t f b;
#X obj 129 56 inlet number of elements;
#X obj 36 220 print;
#X obj 60 195 s pointer;
#X obj 184 112 delay 1000;
#X connect 0 0 3 0;
#X connect 1 0 8 0;
#X connect 2 0 3 1;
#X connect 3 0 4 0;
#X connect 4 0 8 0;
#X connect 5 0 2 0;
#X connect 5 1 9 0;
#X connect 6 0 5 0;
#X connect 9 0 1 0;
#X restore 97 309 pd draw pointer;
#X msg 129 195 read data/E3-PCA-coll.txt;
#X msg 31 109 bang;
#X obj 77 84 t b b;
#X obj 77 125 t b b b;
#X obj 77 105 delay 100;
#X obj 94 154 delay 100;
#X obj 26 183 delay 200;
#X connect 2 0 10 0;
#X connect 3 0 10 1;
#X connect 4 0 8 0;
#X connect 5 0 4 0;
#X connect 7 0 9 0;
#X connect 8 1 10 2;
#X connect 9 0 13 0;
#X connect 10 0 6 0;
#X connect 10 1 11 0;
#X connect 10 2 20 0;
#X connect 12 0 23 0;
#X connect 19 0 9 1;
#X connect 21 0 4 0;
#X connect 22 0 24 0;
#X connect 23 0 25 0;
#X connect 23 1 16 0;
#X connect 24 0 27 0;
#X connect 24 1 26 0;
#X connect 24 2 21 0;
#X connect 25 0 24 0;
#X connect 26 0 5 0;
#X connect 27 0 3 0;
#X restore 600 582 pd stuff;
#X obj 249 580 s space-outlet-y;
#X obj 3 580 s space-outlet-x;
#X obj 558 414 abstractions/vertical-step 0;
#X obj 558 564 hradio 15 1 0 16 nos movinghead empty 0 -8 0 10 -33289
-228856 -1 15;
#X obj 508 548 cnv 15 50 15 empty empty kick 0 9 1 16 -66577 -228856
0;
#X obj 508 534 cnv 15 50 15 empty empty snare 0 9 1 16 -66577 -228856
0;
#X obj 508 518 cnv 15 50 15 empty empty clap 0 9 1 16 -66577 -228856
0;
#X obj 508 503 cnv 15 50 15 empty empty rimsht 0 9 1 16 -66577 -228856
0;
#X obj 508 488 cnv 15 50 15 empty empty chihat 0 9 1 16 -66577 -228856
0;
#X obj 508 474 cnv 15 50 15 empty empty ohihat 0 9 1 16 -66577 -228856
0;
#X obj 508 458 cnv 15 50 15 empty empty ohihat 0 9 1 16 -66577 -228856
0;
#X obj 508 415 cnv 15 50 15 empty empty shaker 0 9 1 16 -66577 -228856
0;
#X obj 508 429 cnv 15 50 15 empty empty m-tom 0 9 1 16 -66577 -228856
0;
#X obj 508 443 cnv 15 50 15 empty empty lo-tom 0 9 1 16 -66577 -228856
0;
#X obj 88 63 r pointer;
#X obj 4 54 cnv 15 498 25 empty empty empty 20 12 0 14 -233017 -66577
0;
#X text 126 57 Click and drag to explore the rhythm space;
#X obj 573 414 abstractions/vertical-step 1;
#X obj 588 414 abstractions/vertical-step 2;
#X obj 603 414 abstractions/vertical-step 3;
#X obj 618 414 abstractions/vertical-step 4;
#X obj 633 414 abstractions/vertical-step 5;
#X obj 648 414 abstractions/vertical-step 6;
#X obj 663 414 abstractions/vertical-step 7;
#X obj 679 414 abstractions/vertical-step 8;
#X obj 693 414 abstractions/vertical-step 9;
#X obj 708 414 abstractions/vertical-step 10;
#X obj 723 414 abstractions/vertical-step 11;
#X obj 738 414 abstractions/vertical-step 12;
#X obj 753 414 abstractions/vertical-step 13;
#X obj 768 414 abstractions/vertical-step 14;
#X obj 783 414 abstractions/vertical-step 15;
#X connect 5 0 13 0;
#X connect 5 1 12 0;
#X connect 6 0 5 0;
#X connect 7 0 5 0;
#X connect 8 0 5 0;
#X connect 26 0 5 0;
